<?xml version="1.0" encoding="utf-8"?>
<!-- Generator: Adobe Illustrator 26.0.0, SVG Export Plug-In . SVG Version: 6.00 Build 0)  -->
<svg version="1.1" id="Layer_1" xmlns="http://www.w3.org/2000/svg" xmlns:xlink="http://www.w3.org/1999/xlink" x="0px" y="0px"
	 viewBox="0 0 427.9 99.4" style="enable-background:new 0 0 427.9 99.4;" xml:space="preserve">
<style type="text/css">
	.st0{fill:#FFFFFF;}
</style>
<g>
	<g>
		<rect x="114.7" y="25.2" class="st0" width="9.1" height="47.2"/>
		<path class="st0" d="M159.9,39.4c-1.9-1.2-4.3-1.8-7.1-1.8c-2.7,0-4.9,0.6-6.8,1.8c-1.9,1.2-3.4,2.7-4.4,4.6l-0.7-5.5h-8v34h9.1
			V54.2c0-1.9,0.3-3.5,1-4.8c0.7-1.3,1.6-2.3,2.8-3.1c1.2-0.7,2.5-1.1,4.1-1.1c2.4,0,4.1,0.7,5.3,2.2c1.1,1.4,1.7,3.5,1.7,6.2v18.7
			h9V52.8c0-3.3-0.5-6-1.5-8.3C163.3,42.2,161.9,40.5,159.9,39.4z"/>
		<path class="st0" d="M196.3,53.5c-2-0.7-4.3-1.3-6.9-1.9c-1.5-0.3-2.7-0.6-3.8-1c-1-0.3-1.8-0.8-2.4-1.2s-0.8-1.1-0.8-1.7
			c0-0.9,0.4-1.7,1.3-2.3c0.9-0.6,2.1-0.9,3.7-0.9c1.5,0,2.8,0.3,3.7,0.9c0.9,0.6,1.5,1.4,1.8,2.5h8.6c-0.5-3.2-1.9-5.8-4.2-7.6
			c-2.4-1.8-5.6-2.8-9.7-2.8c-2.9,0-5.4,0.5-7.5,1.4c-2.1,0.9-3.6,2.2-4.7,3.8c-1.1,1.6-1.6,3.4-1.6,5.4c0,1.7,0.4,3.1,1.1,4.2
			c0.7,1.1,1.7,2,2.9,2.8c1.2,0.7,2.6,1.3,4.1,1.8c1.5,0.5,3.1,0.9,4.8,1.2c1.5,0.3,2.7,0.6,3.8,0.9c1,0.3,1.8,0.7,2.4,1.2
			c0.5,0.5,0.8,1.2,0.8,2.2c0,0.6-0.2,1.2-0.6,1.8c-0.4,0.6-1,1-1.7,1.4s-1.8,0.5-3,0.5c-1.3,0-2.3-0.2-3.2-0.6
			c-0.9-0.4-1.6-1-2.2-1.7c-0.5-0.7-0.9-1.5-1.1-2.3h-9c0.2,2.2,0.9,4.2,2.2,5.9c1.3,1.8,3.1,3.1,5.4,4.1s5,1.5,8.1,1.5
			c2.9,0,5.4-0.5,7.6-1.4c2.1-0.9,3.8-2.3,5-3.9c1.2-1.7,1.8-3.6,1.8-5.8c0-2.4-0.6-4.3-1.7-5.6C199.8,55.2,198.2,54.2,196.3,53.5z"
			/>
		<rect x="210.5" y="38.4" class="st0" width="9.1" height="34"/>
		<path class="st0" d="M215.1,23.5c-1.6,0-3,0.5-4,1.4c-1.1,1-1.6,2.2-1.6,3.7c0,1.5,0.5,2.7,1.6,3.7c1.1,1,2.4,1.4,4,1.4
			c1.7,0,3-0.5,4.1-1.4c1.1-1,1.6-2.2,1.6-3.7c0-1.5-0.5-2.7-1.6-3.7C218.1,24,216.7,23.5,215.1,23.5z"/>
		<path class="st0" d="M243.4,37.6c-2.8,0-5.3,0.6-7.3,1.7c-2,1.1-3.6,2.6-4.7,4.5c-1.1,1.9-1.7,3.9-1.7,6.2s0.5,4.4,1.7,6.2
			c0.6,1,1.3,1.9,2.2,2.7l-5.9,6.4v1.5c0.6,0.6,1.3,1.2,2.3,1.8c0.5,0.3,1.1,0.6,1.7,0.9c-1.3,1-2.3,2.2-3.1,3.4
			c-0.8,1.4-1.2,2.9-1.2,4.4c0,2.3,0.7,4.3,2,5.9c1.3,1.6,3.2,2.8,5.6,3.6s5.3,1.2,8.5,1.2c3.5,0,6.4-0.6,8.7-1.7s4-2.5,5.1-4.3
			c1.1-1.8,1.7-3.7,1.7-5.7c0-2.1-0.4-3.8-1.3-5.2c-0.9-1.4-2.3-2.5-4.2-3.4c-1.9-0.9-4.3-1.4-7.3-1.7c-1.8-0.1-3.3-0.3-4.4-0.5
			c-1.2-0.2-2.1-0.4-2.8-0.6c-0.7-0.2-1.3-0.4-1.8-0.7c-0.1,0-0.1-0.1-0.2-0.1l2.4-2.4c1.3,0.3,2.7,0.5,4.3,0.5
			c2.9,0,5.3-0.5,7.4-1.7c2-1.1,3.6-2.6,4.7-4.4c1.1-1.9,1.6-3.9,1.6-6.2c0-2.1-0.5-4-1.4-5.7l5.8-0.5v-5.4h-12.8
			C247.1,37.9,245.3,37.6,243.4,37.6z M244,72.2c2.6,0.2,4.3,0.7,5.1,1.4c0.9,0.8,1.3,1.8,1.3,3c0,0.9-0.3,1.8-0.9,2.5
			c-0.6,0.7-1.4,1.2-2.5,1.6c-1.1,0.4-2.3,0.5-3.7,0.5c-1.5,0-2.8-0.2-4-0.5s-2.1-0.9-2.8-1.6c-0.7-0.7-1-1.6-1-2.6
			c0-1.2,0.5-2.3,1.4-3.3c0.5-0.6,1.3-1.1,2.2-1.6C240.5,71.8,242.2,72,244,72.2z M247.6,54c-1.1,0.9-2.5,1.3-4.2,1.3
			c-1.7,0-3.1-0.4-4.2-1.3c-1.1-0.9-1.7-2.2-1.7-4s0.5-3.1,1.7-4s2.5-1.4,4.2-1.4c1.8,0,3.2,0.5,4.2,1.4s1.6,2.3,1.6,4
			S248.7,53.1,247.6,54z"/>
		<path class="st0" d="M296.1,39.4c-1.9-1.2-4.3-1.8-7.1-1.8c-2.5,0-4.6,0.5-6.5,1.6c-1.9,1.1-3.4,2.5-4.5,4.3V23.9h-9.1v48.5h9.1
			v-18c0-1.9,0.3-3.5,1-4.9c0.7-1.4,1.7-2.4,2.9-3.1c1.2-0.7,2.6-1.1,4-1.1c2.4,0,4.2,0.7,5.3,2.2c1.1,1.5,1.7,3.5,1.7,6.2v18.7h9
			V52.9c0-3.3-0.5-6.1-1.5-8.4C299.5,42.3,298,40.6,296.1,39.4z"/>
		<path class="st0" d="M323.1,29.2H315l-1,9.2h-5.8V46h5.8v14.4c0,3,0.5,5.4,1.5,7.1c1,1.7,2.4,3,4.1,3.7s3.9,1.1,6.2,1.1h6.1v-7.7
			h-4.4c-1.6,0-2.8-0.3-3.4-0.9s-1-1.6-1-3.2V46h9v-7.6h-9V29.2z"/>
		<rect x="339.9" y="38.4" class="st0" width="9.1" height="34"/>
		<path class="st0" d="M344.5,23.5c-1.6,0-3,0.5-4,1.4c-1.1,1-1.6,2.2-1.6,3.7c0,1.5,0.5,2.7,1.6,3.7c1.1,1,2.4,1.4,4,1.4
			c1.7,0,3-0.5,4.1-1.4c1.1-1,1.6-2.2,1.6-3.7c0-1.5-0.5-2.7-1.6-3.7C347.5,24,346.2,23.5,344.5,23.5z"/>
		<path class="st0" d="M368.8,35.4c0-1.4,0.3-2.4,0.9-2.9c0.6-0.6,1.6-0.8,3.1-0.8h2.8v-7.7h-4.2c-2.4,0-4.5,0.4-6.2,1.1
			c-1.8,0.8-3.1,2-4.1,3.6c-0.9,1.7-1.4,3.9-1.4,6.7v3h-4.6V46h4.6v26.3h9.1V46h7.3v-7.6h-7.3V35.4z"/>
		<polygon class="st0" points="408.4,38.4 399.7,60.3 390,38.4 380.1,38.4 393.7,68.6 395.7,68.6 387.5,87.2 397.1,87.2 418.1,38.4 
					"/>
	</g>
	<g>
		<path class="st0" d="M84.5,46.8c0,1,0,2,0,3c0,0,0,0.1,0,0.1c0,0.1,0,0.1,0,0.2c0,0.1,0,0.1,0,0.2c0,0.2,0,0.5,0,0.7
			c0,0.1,0,0.3,0,0.4c0,0.3-0.1,0.6-0.1,1c0,0.3-0.1,0.5-0.1,0.8c0,0.4-0.1,0.7-0.2,1.1c-0.1,0.5-0.2,1.1-0.3,1.6
			c-0.2,0.9-0.4,1.9-0.7,2.8c-0.7,2.4-1.7,4.8-2.9,7c-2.2,4.1-5.1,7.6-8.6,10.6c-2,1.7-4.2,3.2-6.5,4.4c-2.4,1.3-4.8,2.3-7.4,3
			c-0.8,0.2-1.6,0.4-2.4,0.6c-0.4,0.1-0.8,0.2-1.2,0.2c-0.3,0.1-0.6,0.1-0.9,0.1c-0.3,0-0.5,0.1-0.8,0.1c-0.2,0-0.4,0.1-0.7,0.1
			c-0.3,0-0.6,0.1-0.9,0.1c0,0,0,0,0,0c-0.2,0-0.5,0-0.7,0.1c-0.3,0-0.5,0-0.8,0.1c-0.1,0-0.3,0-0.4,0c-0.1,0-0.1,0-0.2,0
			c0,0-0.1,0-0.1,0c-0.9,0-1.7,0-2.6,0c0,0-0.1,0-0.2,0c-0.2,0-0.4,0-0.6,0c-0.2,0-0.3,0-0.5,0c-0.4,0-0.8-0.1-1.2-0.1
			c0,0-0.1,0-0.1,0c0,0-0.1,0-0.1,0c-0.3,0-0.5-0.1-0.8-0.1c-0.3,0-0.6-0.1-0.9-0.1c-0.4-0.1-0.8-0.1-1.2-0.2
			c-0.6-0.1-1.3-0.3-1.9-0.4c-1.4-0.3-2.8-0.8-4.2-1.3c-4.5-1.7-8.6-4.1-12.2-7.3c-1.8-1.6-3.4-3.4-4.9-5.3
			c-2.6-3.5-4.6-7.4-5.8-11.7c-0.3-1.1-0.6-2.3-0.8-3.4c-0.1-0.5-0.2-0.9-0.2-1.4c0-0.2-0.1-0.4-0.1-0.5c0-0.2-0.1-0.5-0.1-0.7
			c0-0.3-0.1-0.6-0.1-0.9c0,0,0-0.1,0-0.1c0-0.2,0-0.3,0-0.5c0-0.1,0-0.2,0-0.3c0-0.4,0-0.7-0.1-1.1c0-0.2,0-0.3,0-0.5
			c0-0.1,0-0.1,0-0.2c0,0,0-0.1-0.1-0.1c0-0.4,0-0.9,0-1.3c0,0,0.1-0.1,0.1-0.1c0-0.1,0-0.2,0-0.2c0-0.2,0-0.4,0-0.6
			c0-0.5,0.1-1,0.1-1.4c0,0,0,0,0-0.1c0-0.3,0-0.6,0.1-1c0-0.3,0.1-0.5,0.1-0.8c0.1-0.4,0.1-0.7,0.2-1.1c0.1-0.5,0.2-1,0.3-1.4
			c0.2-0.8,0.4-1.7,0.6-2.5c0.8-2.7,1.8-5.2,3.2-7.7c1.9-3.5,4.3-6.5,7.3-9.2c2.3-2.1,4.8-3.9,7.5-5.4c2.4-1.3,5-2.4,7.6-3.2
			c0.8-0.2,1.6-0.4,2.5-0.6c0.5-0.1,1.1-0.2,1.6-0.3c0.2,0,0.4-0.1,0.5-0.1c0.2,0,0.5-0.1,0.7-0.1c0.3,0,0.6-0.1,0.8-0.1
			c0,0,0.1,0,0.1,0c0.1,0,0.2,0,0.3,0c0.1,0,0.2,0,0.3,0c0.2,0,0.4,0,0.6-0.1c0.1,0,0.2,0,0.4,0c0.1,0,0.3,0,0.4,0
			c0.2,0,0.4,0,0.7,0c0.1,0,0.1,0,0.2,0c0,0,0.1,0,0.1,0c0.7,0,1.4,0,2.2,0c0,0,0.1,0,0.1,0c0.2,0,0.3,0,0.5,0c0.2,0,0.4,0,0.7,0
			c0.2,0,0.4,0,0.6,0c0.2,0,0.4,0,0.6,0.1c0,0,0.1,0,0.1,0c0.1,0,0.1,0,0.2,0c0.3,0,0.6,0.1,0.8,0.1c0.4,0,0.8,0.1,1.2,0.2
			c0.4,0.1,0.9,0.2,1.3,0.2c0.6,0.1,1.4,0.3,2.1,0.5c1.7,0.4,3.3,1,4.9,1.6c5.2,2.1,10,5.5,13.8,9.8c1.9,2.1,3.5,4.5,4.9,7
			c1.2,2.3,2.2,4.7,2.9,7.2c0.2,0.8,0.4,1.5,0.6,2.3c0.1,0.4,0.2,0.8,0.2,1.2c0.1,0.3,0.1,0.6,0.2,0.9c0,0.2,0.1,0.4,0.1,0.7
			c0,0.3,0.1,0.7,0.1,1c0,0,0,0.1,0,0.1c0,0.2,0,0.3,0,0.5c0,0.1,0,0.2,0,0.2c0,0.2,0,0.4,0,0.6c0,0.3,0,0.6,0,0.9
			C84.5,46.6,84.5,46.6,84.5,46.8C84.5,46.7,84.5,46.8,84.5,46.8z M82.1,48.3C82.1,48.3,82.1,48.3,82.1,48.3c0-0.2,0-0.4,0-0.6
			c0-0.7-0.1-1.3-0.1-2c0,0,0-0.1,0-0.1c0-0.2,0-0.3,0-0.5c0-0.1,0-0.2,0-0.3c0-0.1,0-0.2,0-0.2c0-0.3-0.1-0.5-0.1-0.8
			c-0.1-0.4-0.1-0.7-0.2-1.1c-0.1-0.6-0.2-1.1-0.3-1.6c-0.2-0.9-0.4-1.8-0.7-2.7c-0.8-2.8-2-5.4-3.5-7.8c-1.3-2.1-2.7-4-4.4-5.7
			C70.1,22,67.2,19.8,64,18c-2.2-1.2-4.6-2.2-7.1-2.9c-0.7-0.2-1.4-0.4-2.2-0.5c-0.5-0.1-1.1-0.2-1.6-0.3c-0.4-0.1-0.7-0.1-1.1-0.2
			c-0.3,0-0.5-0.1-0.8-0.1c0,0-0.1,0-0.1,0c-0.1,0-0.2,0-0.3,0c-0.1,0-0.2,0-0.3,0c-0.2,0-0.4,0-0.6-0.1c-0.1,0-0.2,0-0.3,0
			c-0.2,0-0.4,0-0.6,0c-0.4,0-0.8,0-1.2,0c-0.4,0-0.7,0-1.1,0c-0.3,0-0.7,0-1,0c-0.5,0-0.9,0.1-1.4,0.1c-0.2,0-0.4,0-0.6,0.1
			c0,0-0.1,0-0.1,0c-0.3,0-0.6,0.1-0.8,0.1c-0.2,0-0.5,0.1-0.7,0.1c-0.5,0.1-0.9,0.1-1.4,0.2c-0.5,0.1-1.1,0.2-1.6,0.3
			c-1.2,0.3-2.3,0.6-3.5,1c-4.5,1.6-8.5,4-12,7.2c-3.2,2.9-5.7,6.3-7.6,10.2c-1,2-1.8,4-2.3,6.2c-0.2,0.7-0.3,1.3-0.5,2
			c-0.1,0.5-0.2,0.9-0.3,1.4c0,0.2-0.1,0.3-0.1,0.5c0,0.2-0.1,0.5-0.1,0.7c0,0.3-0.1,0.6-0.1,0.8c0,0,0,0.1,0,0.1c0,0.1,0,0.3,0,0.4
			c0,0.1,0,0.2,0,0.3c0,0.3,0,0.6-0.1,0.8c0,0.2,0,0.3,0,0.5c0,0.9,0,1.8,0,2.6c0,0.3,0,0.5,0,0.8c0,0.1,0,0.3,0,0.4
			c0,0.4,0.1,0.8,0.1,1.1c0,0.1,0,0.2,0,0.2c0,0.3,0.1,0.5,0.1,0.8c0,0.4,0.1,0.7,0.2,1.1c0.1,0.5,0.2,1,0.3,1.6
			c0.2,1,0.5,1.9,0.7,2.8c0.9,2.9,2.1,5.6,3.8,8.1c2.3,3.6,5.1,6.6,8.5,9.1c2.6,2,5.5,3.5,8.5,4.7c1.4,0.5,2.8,1,4.2,1.3
			c0.6,0.2,1.2,0.3,1.9,0.4c0.4,0.1,0.9,0.2,1.3,0.2c0.2,0,0.3,0,0.5,0.1c0.3,0,0.6,0.1,0.8,0.1c0.1,0,0.2,0,0.2,0
			c0.1,0,0.2,0,0.3,0c0.1,0,0.2,0,0.2,0c0.4,0.1,0.7,0.1,1.1,0.1c0.3,0,0.7,0,1,0.1c0.1,0,0.1,0,0.2,0c0.9,0,1.8,0,2.7,0
			c0.5,0,0.9-0.1,1.4-0.1c0,0,0.1,0,0.1,0c0.1,0,0.3,0,0.4,0c0.1,0,0.1,0,0.2,0c0.3,0,0.5,0,0.8-0.1c0.2,0,0.5-0.1,0.7-0.1
			c0.3-0.1,0.7-0.1,1-0.2c0.6-0.1,1.2-0.2,1.8-0.4c1.4-0.3,2.8-0.8,4.2-1.3c2.3-0.9,4.5-2.1,6.5-3.4c1.7-1.1,3.2-2.4,4.7-3.7
			c1.2-1.1,2.3-2.3,3.3-3.5c2-2.5,3.7-5.3,4.9-8.2c1-2.3,1.7-4.6,2.1-7.1c0.1-0.5,0.2-1,0.2-1.5c0-0.4,0.1-0.7,0.1-1.1
			c0,0,0-0.1,0-0.1c0-0.1,0-0.3,0-0.4c0-0.1,0-0.2,0-0.2c0-0.2,0-0.5,0.1-0.7c0-0.1,0-0.2,0-0.3c0-0.3,0-0.5,0-0.8
			C82.1,49,82.1,48.6,82.1,48.3z"/>
		<path class="st0" d="M41.4,27.6c0,0-0.1,0-0.1,0c-0.2-0.1-0.3-0.2-0.5-0.3c-0.4-0.2-0.8-0.4-1.2-0.6c-0.4-0.1-0.8-0.2-1.2-0.3
			c-0.3-0.1-0.6-0.1-0.9-0.1c-0.1,0-0.2,0-0.4,0c-0.2,0-0.5,0-0.7,0.1c-0.3,0-0.5,0.1-0.8,0.2c-1.5,0.4-2.7,1.2-3.7,2.4
			c-0.1,0.1-0.1,0.1-0.2,0.2c-0.1,0.1-0.2,0.2-0.3,0.3c-0.1,0.1-0.3,0.1-0.4,0.2c-0.2,0-0.3,0.1-0.5,0.1c-0.4,0.1-0.8,0.3-1.2,0.5
			c-0.4,0.2-0.7,0.4-1,0.7c-0.3,0.2-0.5,0.5-0.7,0.7c-0.3,0.4-0.6,0.9-0.7,1.4c-0.1,0.2-0.2,0.5-0.2,0.7c0,0.1,0,0.2-0.1,0.3
			c0,0,0,0,0,0.1c-0.1,0.3-0.2,0.6-0.5,0.7c-0.1,0.1-0.2,0.1-0.3,0.2c-0.3,0.2-0.6,0.4-0.8,0.7c-0.3,0.3-0.5,0.7-0.7,1.1
			c-0.2,0.4-0.2,0.7-0.3,1.1c0,0,0,0,0,0.1c0,0.4,0,0.7,0.1,1.1c0,0.1,0,0.2,0,0.3c0,0.1,0,0.2-0.1,0.3c0,0.1-0.1,0.2-0.1,0.2
			c-0.1,0.3-0.3,0.6-0.3,0.8c-0.1,0.3-0.1,0.6-0.1,1c0,0.4,0.1,0.9,0.3,1.2c0.5,1,1.2,1.7,2.3,2c0.4,0.1,0.7,0.2,1.1,0.2
			c0.1,0,0.2,0,0.2,0c0.2,0,0.4,0,0.6,0c0.2,0,0.4,0,0.7,0c0,0,0.1,0,0.1,0c0,0,0.1,0,0.1,0.1c0,0,0,0.1,0,0.1c0,0-0.1,0-0.1,0.1
			c-0.4,0.2-0.8,0.3-1.2,0.4c-0.2,0-0.4,0-0.6,0c-0.3,0-0.5,0-0.8-0.1c-0.1,0-0.1,0-0.2,0.1c0,0,0,0.1,0,0.1
			c0.2,0.3,0.3,0.6,0.5,0.8c0.2,0.4,0.5,0.7,0.9,1c0.4,0.3,0.8,0.6,1.3,0.7c0.4,0.2,0.8,0.3,1.3,0.4c0.2,0,0.5,0.1,0.7,0.1
			c0.5,0,1,0.1,1.4,0c0.3,0,0.6,0,0.9,0c0.1,0,0.2,0,0.2,0c0.1,0,0.2,0,0.4-0.1c0.1-0.1,0.2-0.2,0.3-0.3c0.1-0.1,0.1-0.3,0.1-0.5
			c0,0,0-0.1-0.1-0.1c0,0-0.1,0-0.1,0c-0.4-0.1-0.8-0.2-1.1-0.3c-0.6-0.2-1.1-0.4-1.7-0.7c-0.4-0.2-0.7-0.4-1.1-0.7
			c0,0-0.1-0.1-0.1-0.1c0,0,0-0.1,0-0.1c0,0,0,0,0-0.1c0,0,0.1-0.1,0.1-0.1c0.2,0,0.3,0.1,0.5,0.1c0.2,0.1,0.5,0.2,0.7,0.3
			c0.5,0.2,0.9,0.4,1.4,0.5c0.3,0.1,0.7,0.2,1,0.3c0.1,0,0.3,0.1,0.4,0.1c0.1,0,0.2,0,0.2,0c0.1,0,0.1-0.1,0.2-0.1
			c0.1-0.1,0.1-0.1,0.1-0.2c0.1-0.2,0.2-0.3,0.2-0.5c0,0,0-0.1,0-0.1c-0.2-0.1-0.3-0.1-0.5-0.2c-0.3-0.1-0.6-0.2-0.9-0.3
			c-0.5-0.2-1-0.4-1.5-0.6c-0.5-0.3-1-0.6-1.5-1c0,0-0.1-0.1-0.1-0.1c-0.1-0.1-0.3-0.2-0.5-0.2c-0.1,0-0.2,0-0.3,0
			c-0.2,0-0.4,0-0.6-0.1c-0.1,0-0.2-0.1-0.3-0.2C28.1,43.6,28,43.3,28,43c0-0.2,0-0.5,0.2-0.7c0.2-0.2,0.4-0.4,0.7-0.4
			c0.1,0,0.1,0,0.2,0c0,0,0.1,0,0.1,0c0.5,0,0.9,0.3,1,0.8c0.1,0.1,0.1,0.3,0.1,0.4c0,0,0,0.1,0,0.1c0,0.1,0,0.3,0.1,0.4
			c0,0.1,0.1,0.2,0.2,0.3c0,0,0.1,0.1,0.1,0.1c0.5,0.5,1.1,0.8,1.8,1.1c0.4,0.2,0.8,0.3,1.2,0.4c0.3,0.1,0.6,0.1,0.9,0.2
			c0.1,0,0.1,0,0.2,0c0.1,0,0.3,0,0.4-0.1c0,0,0.1-0.1,0.1-0.1c0.2-0.1,0.3-0.2,0.5-0.4c0,0,0-0.1,0-0.1c-0.2-0.1-0.3-0.1-0.5-0.2
			c-0.2-0.1-0.4-0.1-0.6-0.2c-0.2-0.1-0.4-0.2-0.6-0.3c-0.9-0.4-1.5-1-2-1.9c-0.1-0.2-0.2-0.5-0.3-0.7c-0.1-0.2-0.1-0.3-0.2-0.5
			c-0.1-0.2-0.2-0.4-0.3-0.6c-0.3-0.4-0.7-0.7-1.2-0.9c-0.1,0-0.1,0-0.2-0.1c-0.1,0-0.1,0-0.2,0.1c0,0.1-0.1,0.1-0.1,0.2
			c0,0-0.1,0.1-0.1,0.1c-0.3,0.3-0.6,0.3-1,0.3c-0.1,0-0.1,0-0.2-0.1c-0.2-0.1-0.4-0.3-0.5-0.5c-0.1-0.2-0.1-0.4-0.1-0.6
			c0-0.1,0-0.2,0.1-0.3c0.1-0.3,0.4-0.5,0.7-0.6c0.1,0,0.3,0,0.4,0c0.2,0,0.3,0.1,0.5,0.2c0.1,0,0.1,0.1,0.2,0.2
			c0.3,0.2,0.5,0.4,0.8,0.5c0.1,0.1,0.3,0.1,0.4,0.2c0.6,0.4,1.1,0.9,1.3,1.6c0,0.1,0.1,0.1,0.1,0.2c0.1,0.2,0.2,0.4,0.3,0.6
			c0.5,0.9,1.1,1.5,2.1,1.9c0.3,0.1,0.6,0.2,1,0.3c0.2,0,0.4,0.1,0.6,0.1c0.2,0,0.4,0,0.6-0.1c0.1,0,0.2-0.1,0.3-0.1
			c0.1-0.1,0.2-0.2,0.4-0.3c0,0,0-0.1,0-0.1c0,0-0.1,0-0.1,0c0,0,0,0-0.1,0c-0.7-0.3-1.3-0.5-2-0.8c0,0-0.1,0-0.1,0
			c0,0-0.1-0.1,0-0.1c0-0.1,0-0.1,0-0.2c0,0,0.1,0,0.1,0c0,0,0,0,0.1,0c0.3,0.1,0.6,0.1,0.9,0.2c0.2,0,0.3,0.1,0.5,0.1
			c0.1,0,0.3,0.1,0.4,0.2c0.1,0,0.2,0.1,0.2,0.1c0.2,0.1,0.4,0.1,0.6,0.2c0.1,0,0.2,0,0.4,0c0.2,0,0.4-0.1,0.6-0.2
			c0.2-0.1,0.3-0.1,0.4-0.3c0,0,0-0.1,0-0.1c0,0,0,0,0-0.1c-0.2-0.3-0.5-0.6-0.8-0.8c-0.2-0.2-0.5-0.3-0.7-0.4
			c-0.3-0.1-0.6-0.2-0.9-0.3c-0.3-0.1-0.6-0.1-1-0.2C35.5,41,35.3,41,35,40.9c-0.2-0.1-0.5-0.2-0.7-0.3c-0.8-0.4-1.4-1-1.7-1.7
			c-0.1-0.2-0.2-0.4-0.3-0.6c0-0.1-0.1-0.2-0.1-0.3c-0.1-0.2-0.3-0.4-0.5-0.5c-0.1,0-0.1,0-0.2-0.1c-0.4-0.2-0.7-0.5-0.7-0.9
			c0-0.2,0-0.5,0.1-0.7c0.2-0.4,0.4-0.6,0.8-0.8c0.1,0,0.3-0.1,0.4-0.1c0.5,0,0.9,0.2,1.1,0.6c0.2,0.3,0.2,0.6,0.2,0.9
			c0,0.2-0.1,0.3-0.2,0.5c-0.1,0.1-0.1,0.1-0.2,0.2c-0.1,0.1-0.2,0.2-0.2,0.4c0,0.1,0,0.1,0,0.2c0,0.1,0,0.2,0.1,0.3
			c0.4,0.9,1,1.6,1.9,2c0.3,0.1,0.7,0.3,1,0.3c0.2,0,0.5,0.1,0.7,0.1c0.1,0,0.3,0.1,0.4,0.1c0.2,0,0.3,0.1,0.4,0.2
			c0.3,0.1,0.6,0.3,0.9,0.4c0.2,0.1,0.3,0.2,0.5,0.3c0.3,0.2,0.5,0.4,0.7,0.6c0.1,0.1,0.1,0.1,0.2,0.2c0.1,0.1,0.2,0.1,0.3,0.2
			c0.1,0.1,0.3,0.1,0.4,0.1c0,0,0,0,0.1,0c0.2,0,0.3-0.1,0.5-0.2c0,0,0.1-0.1,0.1-0.1c0,0,0-0.1,0-0.1c-0.1-0.5-0.3-0.9-0.5-1.3
			c-0.1-0.1-0.2-0.2-0.2-0.4c-0.3-0.3-0.6-0.6-1-0.8c-0.2-0.1-0.4-0.2-0.6-0.3c-0.3-0.1-0.7-0.3-1-0.4c-0.4-0.1-0.8-0.3-1.2-0.4
			c-0.2-0.1-0.4-0.1-0.5-0.2c-0.1,0-0.3-0.1-0.4-0.1c-0.1,0-0.2-0.1-0.3-0.1c-0.2-0.1-0.3-0.2-0.4-0.4c0-0.1-0.1-0.2-0.1-0.3
			c0,0,0,0,0,0c0,0,0,0,0.1,0c0.1,0,0.1,0,0.2,0.1c0.1,0,0.3,0.1,0.4,0.2c0.3,0.1,0.6,0.2,0.9,0.3c0,0,0,0,0.1,0c0,0,0,0,0-0.1
			c0,0,0,0,0,0c-0.3-0.8-0.5-1.7-0.8-2.5c-0.1-0.2-0.1-0.4-0.2-0.5c-0.4-1-1.2-1.7-2.1-2c-0.4-0.1-0.8-0.2-1.2-0.1
			c-0.1,0-0.2,0-0.3,0c-0.1,0-0.2,0.1-0.2,0.1c-0.1,0.1-0.1,0.1-0.2,0.2c0,0.1-0.1,0.1-0.1,0.2c-0.1,0.1-0.2,0.2-0.3,0.4
			c-0.1,0.1-0.3,0.2-0.5,0.3c0,0-0.1,0-0.1,0c-0.2,0-0.4,0-0.5,0c-0.4-0.1-0.7-0.3-0.9-0.6c-0.1-0.3-0.2-0.5-0.1-0.8
			c0-0.1,0-0.2,0.1-0.4c0.1-0.1,0.1-0.3,0.3-0.4c0.2-0.2,0.4-0.3,0.7-0.4c0.2,0,0.3,0,0.5,0c0.2,0,0.4,0.1,0.6,0.3
			c0.1,0.1,0.2,0.1,0.3,0.2c0.1,0.1,0.2,0.1,0.3,0.2c0.1,0.1,0.3,0.1,0.4,0.1c0.3,0,0.6,0,0.9,0c0.7,0.1,1.4,0.3,2,0.7
			c0.4,0.3,0.6,0.6,0.9,1c0.3,0.4,0.4,0.8,0.6,1.2c0.1,0.2,0.1,0.5,0.2,0.7c0.1,0.2,0.1,0.5,0.2,0.7c0.1,0.2,0.2,0.4,0.3,0.6
			c0.3,0.5,0.7,0.9,1.3,1.1c0.1,0,0.2,0.1,0.3,0.1c0.4,0.2,0.7,0.3,1.1,0.6c0.2,0.1,0.4,0.3,0.7,0.5c0.6,0.5,1.1,1.2,1.4,2
			c0.1,0.2,0.1,0.3,0.1,0.5c0,0.1,0,0.1,0.1,0.2c0,0,0,0,0.1,0c0,0,0,0,0,0c0.2,0,0.4,0,0.6-0.1c0,0,0.1,0,0.1-0.1c0,0,0,0,0-0.1
			c0.1-0.5,0.1-0.9,0.1-1.4c-0.1-0.8-0.4-1.5-0.9-2.1c-0.2-0.2-0.4-0.4-0.7-0.6c-0.2-0.1-0.4-0.3-0.7-0.4c-0.1,0-0.1-0.1-0.2-0.1
			c-0.1,0-0.2-0.1-0.2-0.1c-0.6-0.3-1-0.9-1.3-1.5c-0.1-0.2-0.1-0.5-0.2-0.7c-0.1-0.4-0.1-0.9-0.1-1.3c0-0.3,0.1-0.7,0.1-1
			c0.1-0.6,0.3-1.1,0.6-1.6c0.3-0.5,0.6-0.9,1-1.3c0.5-0.5,1.1-0.8,1.7-1.1c0.1,0,0.2-0.1,0.3-0.1c0.1,0,0.2-0.1,0.4-0.2
			c0.3-0.2,0.5-0.6,0.6-1c0-0.1,0-0.1,0-0.2c0,0,0-0.1,0.1-0.1c0,0,0,0,0.1,0c0,0,0.1,0,0.1,0c0.1,0.1,0.1,0.3,0.2,0.4
			c0,0.1,0,0.2,0,0.2c-0.2,0.3-0.4,0.7-0.6,0.9c-0.2,0.2-0.3,0.3-0.5,0.4c-0.1,0.1-0.3,0.1-0.4,0.2c-0.3,0.1-0.5,0.3-0.8,0.4
			c-0.3,0.2-0.6,0.5-0.8,0.7c-0.5,0.6-0.9,1.4-1.1,2.2C39,33.5,39,34.1,39,34.6c0.1,0.4,0.1,0.7,0.3,1.1c0.1,0.2,0.1,0.3,0.3,0.5
			c0.2,0.2,0.4,0.4,0.6,0.6c0.1,0,0.2,0.1,0.2,0.1c0.1,0,0.2,0.1,0.3,0.1c0.3,0.1,0.5,0.2,0.7,0.4c0.5,0.4,0.9,0.8,1.2,1.4
			c0.1,0.3,0.3,0.6,0.3,1c0.1,0.3,0.1,0.8,0.2,1.1c0,0.3,0,0.6,0,0.9c0,0.1,0,0.1,0,0.2c0,0,0,0.1,0.1,0.1c0,0,0,0,0.1,0
			c0.4,0,0.8,0,1.2,0c0,0,0.1,0,0.1,0c0,0,0,0,0,0c0,0,0,0,0-0.1c0-0.1,0-0.2,0-0.4c0-0.3,0-0.7,0-1c0-0.3,0-0.7,0-1
			c0-0.1,0-0.2,0-0.3c0-0.2,0-0.4-0.1-0.7c0,0,0-0.1,0-0.1c0-0.3-0.1-0.5-0.1-0.8c0-0.2-0.1-0.4-0.2-0.6c-0.1-0.1-0.2-0.2-0.3-0.3
			c-0.2-0.1-0.3-0.3-0.5-0.4c-0.1-0.1-0.3-0.2-0.4-0.3c-0.2-0.1-0.3-0.2-0.5-0.3c-0.1-0.1-0.2-0.2-0.4-0.3c-0.3-0.2-0.4-0.5-0.6-0.9
			c0-0.1,0-0.1-0.1-0.2c0-0.1-0.1-0.1-0.1-0.2c-0.1,0-0.1-0.1-0.2-0.1c-0.1,0-0.1-0.1-0.2-0.1c-0.2-0.2-0.3-0.4-0.4-0.6
			c-0.1-0.3-0.1-0.5,0-0.8c0.2-0.3,0.4-0.5,0.8-0.6c0.3-0.1,0.6,0,0.9,0.2c0.2,0.1,0.3,0.3,0.4,0.6c0.1,0.2,0.1,0.5,0,0.7
			c0,0.1-0.1,0.2-0.2,0.3c-0.1,0.1-0.1,0.1-0.2,0.2c-0.1,0.1-0.1,0.1-0.1,0.2c-0.1,0.2-0.1,0.3,0,0.5c0,0.1,0.1,0.1,0.1,0.2
			c0,0,0.1,0.1,0.1,0.1c0.1,0.1,0.3,0.2,0.4,0.3c0.4,0.3,0.7,0.5,1.1,0.8c0,0,0,0,0.1,0c0,0,0,0,0.1,0c0-0.1,0.1-0.5,0.1-0.6
			c0-0.1,0-0.2,0-0.4c0-0.4,0.1-0.8,0.2-1.1c0.2-0.6,0.5-1,1-1.4c0.2-0.1,0.4-0.3,0.5-0.4c0.1,0,0.1-0.1,0.2-0.1
			c0.3-0.2,0.6-0.4,0.9-0.7c0.1-0.1,0.1-0.1,0.2-0.2c0.1-0.1,0.1-0.2,0.1-0.4c0,0,0-0.1,0-0.1c0-0.1-0.1-0.1-0.1-0.2
			c0-0.1-0.1-0.1-0.1-0.2c-0.1-0.2-0.2-0.3-0.2-0.6c0-0.3,0.2-0.8,0.6-1c0.2-0.1,0.3-0.1,0.5-0.1c0.4,0.1,0.7,0.3,0.8,0.7
			c0,0.1,0.1,0.2,0.1,0.3c0,0.2,0,0.4-0.2,0.6c-0.1,0.1-0.1,0.2-0.2,0.3c-0.2,0.2-0.3,0.3-0.5,0.5c-0.1,0.1-0.2,0.3-0.3,0.4
			c-0.1,0.1-0.2,0.2-0.3,0.3c-0.1,0.1-0.2,0.2-0.3,0.3c-0.2,0.2-0.4,0.3-0.6,0.5c-0.2,0.1-0.3,0.2-0.5,0.4c-0.2,0.2-0.4,0.4-0.5,0.6
			c-0.2,0.3-0.4,0.6-0.5,0.9c-0.1,0.2-0.1,0.4-0.1,0.6c0,0.3,0,0.6,0,0.9c0,0.2,0.1,0.3,0.1,0.5c0.1,0.2,0.1,0.4,0.2,0.7
			c0.1,0.4,0.1,0.7,0.2,1.1c0.1,0.4,0.1,0.7,0.1,1.1c0,0.1,0,0.2,0,0.4c0,0.3,0,0.7,0,1c0,0.2,0,0.5,0,0.7c0,0.1,0,0.2,0,0.3
			c0,0,0,0,0,0c0,0,0,0,0,0c0.3-0.1,0.5-0.2,0.7-0.3c0.3-0.2,0.5-0.4,0.6-0.7c0.1-0.1,0.1-0.3,0.1-0.4c0.1-0.3,0.1-0.6,0-0.9
			c-0.1-0.4-0.1-0.9-0.1-1.3c0-0.4,0-0.8,0-1.2c0-0.3,0-0.6,0.1-0.9c0.1-0.4,0.2-0.8,0.3-1.2c0.3-0.7,0.7-1.2,1.4-1.5
			c0.4-0.2,0.8-0.4,1.2-0.5c0.3-0.1,0.6-0.1,0.9-0.1c0.4,0,0.8-0.1,1.2-0.3c0.1,0,0.2-0.1,0.3-0.1c0.1,0,0.1-0.1,0.2-0.1
			c0.2-0.1,0.3-0.3,0.3-0.6c0-0.1,0-0.2,0-0.3c-0.1-0.3,0-0.6,0.2-0.9c0.2-0.2,0.4-0.4,0.7-0.4c0.1,0,0.2,0,0.4,0
			c0.3,0,0.6,0.1,0.8,0.3c0.2,0.2,0.3,0.4,0.4,0.6c0,0.1,0,0.2,0,0.3c0,0.3-0.1,0.6-0.2,0.8c-0.1,0.2-0.3,0.3-0.5,0.4
			c-0.1,0.1-0.3,0.1-0.4,0.1c-0.2,0-0.3,0-0.5,0c-0.1,0-0.2,0-0.3,0c-0.1,0-0.2,0-0.3,0.1c0,0-0.1,0.1-0.1,0.1
			c-0.4,0.3-0.8,0.4-1.2,0.6c-0.2,0.1-0.5,0.1-0.7,0.2c-0.2,0-0.3,0-0.5,0.1c-0.4,0-0.7,0.1-1,0.3c-0.1,0-0.2,0.1-0.3,0.2
			c-0.6,0.3-1,0.8-1.3,1.4c-0.1,0.3-0.2,0.6-0.2,1c0,0.4,0,0.9,0,1.3c0,0.8,0,1.5,0,2.3c0,0.2,0,0.5,0,0.7c0,0,0,0.1,0,0.1
			c0,0,0.1,0.1,0.1,0.1c0.3,0,0.5-0.1,0.8-0.1c0.1,0,0.2-0.1,0.3-0.1c0.3-0.1,0.4-0.3,0.5-0.6c0-0.1,0.1-0.2,0.1-0.3
			c0-0.1,0-0.2,0.1-0.3c0-0.3,0-0.6,0-0.9c0-0.2-0.1-0.3-0.1-0.5c-0.1-0.3-0.1-0.6-0.1-0.9c0-0.2,0-0.4,0-0.5c0-0.2,0.1-0.3,0.2-0.5
			c0,0,0,0,0.1,0c0,0,0,0,0.1,0c0,0.1,0,0.2,0.1,0.3c0.1,0.5,0.2,0.9,0.3,1.4c0.1,0.3,0.1,0.5,0.2,0.8c0,0,0,0.1,0,0.1
			c0,0,0.1,0,0.1,0c0,0,0,0,0,0c0.3-0.2,0.5-0.4,0.8-0.5c0.1-0.1,0.3-0.2,0.4-0.3c0.1-0.1,0.1-0.1,0.2-0.2c0.1-0.1,0.1-0.2,0.1-0.3
			c0-0.1,0-0.1,0-0.2c0-0.1-0.1-0.2-0.2-0.3c-0.1-0.1-0.1-0.1-0.2-0.2c-0.1-0.1-0.2-0.2-0.2-0.4c0-0.1,0-0.1,0-0.2
			c0-0.1,0-0.1,0-0.2c0-0.3,0.1-0.6,0.4-0.9c0.2-0.2,0.4-0.2,0.7-0.2c0.2,0,0.3,0,0.5,0.1c0.3,0.1,0.5,0.4,0.6,0.7
			c0.1,0.2,0.1,0.3,0,0.5c0,0.3-0.2,0.5-0.3,0.7c0,0-0.1,0.1-0.1,0.1c-0.1,0.1-0.2,0.2-0.3,0.4c-0.1,0.2-0.3,0.4-0.4,0.5
			c-0.1,0.1-0.2,0.3-0.4,0.4c-0.1,0.1-0.2,0.3-0.4,0.4c-0.2,0.2-0.3,0.3-0.5,0.5c-0.1,0.1-0.2,0.1-0.2,0.2c-0.1,0.1-0.2,0.2-0.3,0.3
			c-0.2,0.2-0.3,0.4-0.4,0.7c0,0,0,0.1,0,0.1c0,0,0,0.1,0.1,0.1c0,0,0.1,0,0.1,0c0.7,0,1.4,0,2.1,0c0.2,0,0.4,0,0.6,0
			c0.1,0,0.2,0,0.2-0.1c0.1-0.1,0.1-0.1,0.2-0.2c0-0.1,0-0.1,0.1-0.2c0.2-0.6,0.6-1,1-1.4c0.2-0.1,0.3-0.2,0.5-0.3
			c0.4-0.2,0.7-0.5,1-0.8c0.2-0.2,0.3-0.3,0.4-0.5c0.2-0.3,0.4-0.6,0.6-1c0.1-0.2,0.1-0.3,0.1-0.5c0-0.1-0.1-0.2-0.1-0.3
			c-0.1-0.2-0.1-0.4-0.1-0.6c0-0.1,0.1-0.3,0.1-0.4c0.2-0.3,0.4-0.5,0.7-0.6c0.2-0.1,0.3-0.1,0.5-0.1c0.2,0,0.4,0.1,0.5,0.2
			c0.1,0.1,0.2,0.2,0.3,0.3c0.2,0.2,0.3,0.5,0.3,0.8c0,0.2,0,0.4-0.1,0.7c-0.1,0.2-0.3,0.4-0.5,0.5c-0.1,0.1-0.3,0.1-0.4,0.2
			c-0.1,0-0.2,0-0.3,0.1c-0.2,0-0.3,0.1-0.4,0.2c-0.1,0.1-0.2,0.1-0.2,0.3c0,0.1-0.1,0.1-0.1,0.1c-0.3,0.6-0.7,1-1.1,1.5
			c-0.2,0.2-0.4,0.4-0.7,0.6c-0.1,0.1-0.2,0.2-0.3,0.2c-0.2,0.2-0.4,0.4-0.6,0.6c-0.2,0.3-0.4,0.5-0.5,0.8c0,0,0,0,0,0.1
			c0,0,0,0.1,0,0.1c0.1,0,0.1,0,0.2,0c0.2,0,0.4,0.1,0.6,0.1c0.3,0,0.5,0.1,0.8,0.1c0.2,0,0.5,0,0.7,0c0.2,0,0.3,0,0.5-0.1
			c0.2,0,0.4-0.1,0.5-0.2c0.1,0,0.1-0.1,0.2-0.1c0,0,0,0,0.1,0c0,0,0,0,0,0c-0.2,0.3-0.4,0.5-0.7,0.7c-0.2,0.1-0.4,0.2-0.6,0.2
			c-0.2,0-0.4,0.1-0.6,0.1c-0.4,0-0.8,0-1.2,0c-0.7,0-1.4,0-2.1,0c-0.3,0-0.7,0-1,0c-0.2,0-0.4,0-0.6,0c-0.2,0-0.4,0-0.6,0
			c0,0-0.1,0-0.1,0c-0.3,0-0.6,0.1-1,0.1c-0.3,0-0.6,0.1-0.8,0.2c-0.5,0.1-0.9,0.3-1.3,0.5c-0.5,0.2-0.9,0.5-1.3,0.8
			c-0.1,0.1-0.2,0.1-0.2,0.2C45,42.9,44.9,43,44.7,43c-0.2,0-0.4,0-0.5,0.1c-0.3,0-0.6,0-0.8,0c-0.2,0-0.4,0-0.6,0
			c-0.1,0-0.1,0-0.2,0c-1.5,0.2-2.9,0.6-4.2,1.3c-0.4,0.2-0.8,0.5-1.2,0.7c-0.4,0.3-0.8,0.6-1.2,1c-0.7,0.8-1.1,1.6-1.4,2.6
			c-0.1,0.2-0.1,0.5-0.1,0.7c-0.1,0.3-0.1,0.7-0.1,1c0,0.4,0.1,0.8,0.2,1.2c0.2,0.6,0.5,1.1,0.8,1.6c0.3,0.3,0.6,0.6,0.9,0.8
			c0.3,0.2,0.7,0.5,1,0.6c0.3,0.1,0.5,0.3,0.8,0.4c0.2,0.1,0.3,0.2,0.5,0.2c0,0,0.1,0,0.1,0.1c0,0,0,0.1,0,0.1c0,0,0,0,0,0
			c-0.2,0.1-0.4,0.1-0.5,0.2c-0.2,0.1-0.3,0.1-0.5,0.1c-0.2,0-0.3,0-0.5,0c-0.1,0-0.2-0.1-0.3-0.1c-0.1-0.1-0.3-0.1-0.4-0.2
			c-0.5-0.4-1-0.8-1.5-1.2c-0.3-0.3-0.6-0.6-0.8-1c-0.3-0.4-0.5-0.9-0.6-1.4c-0.1-0.4-0.2-0.8-0.2-1.3c0-0.1,0-0.3,0-0.4
			c0,0,0-0.1-0.1-0.1c0,0,0,0,0,0c0,0-0.1,0-0.1,0c-0.6,0-1.2-0.1-1.9-0.1c-0.2,0-0.4,0-0.6,0c0,0-0.1,0-0.1,0c-0.3,0-0.6,0-0.9-0.1
			c-0.7-0.1-1.4-0.3-2-0.5c-0.4-0.2-0.8-0.4-1.2-0.7c-0.3-0.3-0.6-0.6-0.9-1c0,0-0.1-0.1-0.1-0.1c-0.6-1-1.2-1.9-1.9-2.8
			c-0.2-0.3-0.4-0.5-0.6-0.8c-0.1-0.1-0.1-0.2-0.2-0.3c-0.3-0.4-0.4-0.8-0.5-1.2c0-0.2-0.1-0.4-0.1-0.6c0-0.3,0-0.6,0.1-0.8
			c0.1-0.4,0.2-0.7,0.3-1.1c0-0.1,0.1-0.1,0.1-0.2c0.1-0.3,0.2-0.7,0.1-1c0,0,0,0,0-0.1c0-0.3,0-0.6,0-1c0.1-0.5,0.2-1.1,0.5-1.5
			c0.2-0.4,0.4-0.7,0.7-1c0.2-0.2,0.4-0.4,0.6-0.6c0.1-0.1,0.2-0.2,0.3-0.3c0.1-0.1,0.2-0.2,0.3-0.3c0.1-0.1,0.2-0.3,0.2-0.5
			c0.1-0.3,0.1-0.6,0.3-0.9c0.4-1,1-1.8,1.8-2.5c0.4-0.3,0.8-0.5,1.2-0.7c0.3-0.2,0.7-0.3,1-0.4c0.1,0,0.2-0.1,0.3-0.1
			c0.4-0.2,0.8-0.4,1.1-0.7c0.1-0.1,0.1-0.2,0.2-0.2c0.5-0.5,1-1,1.6-1.4c0.6-0.4,1.3-0.7,1.9-0.8c0.3-0.1,0.7-0.1,1-0.2
			c0,0,0.1,0,0.1,0c0.2,0,0.4,0,0.6,0c0.1,0,0.2,0,0.3,0c0.1,0,0.1,0,0.2,0c0.4,0,0.7-0.1,1-0.4c0.1-0.1,0.2-0.1,0.2-0.2
			c0.6-0.4,1.3-0.8,2-1.1c0.4-0.1,0.8-0.2,1.2-0.3c0.4-0.1,0.8-0.1,1.3-0.1c0.3,0,0.6,0,0.9,0c0.1,0,0.1,0,0.2,0
			c0.2,0,0.5,0,0.7,0.1c0.5,0.1,0.9,0.2,1.4,0.3c0.1,0,0.1,0,0.2,0c0.1,0.1,0.3,0.1,0.5,0.1c0,0,0.1,0,0.1,0c0.2,0,0.3,0,0.5-0.1
			c0.2-0.1,0.5-0.2,0.7-0.2c0.4-0.1,0.8-0.2,1.2-0.2c0.5-0.1,1-0.1,1.5-0.1c0.3,0,0.6,0.1,0.9,0.1c1,0.2,1.9,0.5,2.8,1.1
			c0.3,0.2,0.6,0.4,0.9,0.6c0.1,0,0.1,0.1,0.2,0.1c0.3,0.2,0.5,0.3,0.9,0.4c0.1,0,0.1,0,0.2,0c0.5,0,1.2,0.2,1.6,0.3
			c1,0.3,2,0.8,2.8,1.5c0.7,0.5,1.2,1.1,1.7,1.8c0.4,0.6,0.7,1.3,1,2c0,0,0,0.1,0,0.1c0.1,0.3,0.3,0.6,0.6,0.8
			c0.1,0,0.2,0.1,0.2,0.1c0.4,0.3,0.9,0.5,1.2,0.9c1.2,1,2,2.3,2.4,3.8c0.1,0.4,0.2,0.7,0.2,1.1c0,0.3,0.1,0.6,0.1,0.9
			c0,0,0,0.1,0,0.1c0,0.1,0,0.2-0.1,0.3c0,0.1-0.1,0.1-0.1,0.2c-0.1,0.2-0.3,0.4-0.5,0.6c0,0-0.1,0-0.1,0c-0.1,0-0.1,0-0.2-0.1
			c0,0,0,0,0-0.1c0,0,0-0.1,0-0.1c0-0.2,0-0.4,0-0.5c0-0.2,0-0.4,0-0.7c0-0.1,0-0.1,0-0.2c-0.1-0.7-0.2-1.4-0.5-2
			c-0.4-1-1-1.8-1.7-2.4c-0.4-0.3-0.8-0.6-1.3-0.9c-0.1-0.1-0.3-0.1-0.4-0.2c-0.1,0-0.2-0.1-0.2-0.1c-0.2-0.1-0.4-0.3-0.5-0.6
			c0-0.1-0.1-0.2-0.1-0.3c-0.1-0.3-0.1-0.5-0.2-0.8c-0.3-0.7-0.6-1.3-1.1-1.9c-0.9-1.1-2-1.9-3.4-2.3c-0.3-0.1-0.7-0.2-1-0.3
			c-0.3,0-0.6-0.1-0.9-0.1c-0.1,0-0.3,0-0.4,0c-0.2,0-0.4-0.1-0.6-0.2c-0.1,0-0.1-0.1-0.2-0.1c0,0-0.1-0.1-0.1-0.1
			c-0.6-0.6-1.2-1-2-1.3c-0.5-0.2-1-0.3-1.6-0.4c-0.3-0.1-0.7-0.1-1-0.1c-0.1,0-0.2,0-0.3,0c-0.1,0-0.2,0-0.3,0
			c-0.7,0-1.3,0.2-2,0.4c-0.2,0.1-0.3,0.1-0.5,0.2C47.3,25,47.1,25,47,25c-0.1,0-0.2,0-0.3,0c-0.1,0-0.2,0-0.4-0.1
			c-0.1,0-0.2-0.1-0.3-0.1c-0.4-0.2-0.8-0.3-1.3-0.4c-0.2,0-0.4-0.1-0.7-0.1c-0.4-0.1-0.8-0.1-1.1,0c-0.1,0-0.3,0-0.4,0
			c-0.2,0-0.4,0-0.6,0.1c-0.5,0.1-1,0.2-1.5,0.5c-0.2,0.1-0.4,0.2-0.6,0.3c-0.2,0.1-0.3,0.2-0.5,0.3c-0.1,0.1-0.3,0.2-0.4,0.2
			c0,0,0,0,0,0.1c0,0,0,0,0,0.1c0.1,0,0.1,0.1,0.2,0.1c0.1,0.1,0.3,0.1,0.4,0.2c0.2,0.1,0.3,0.1,0.4,0.2c0.1,0.1,0.3,0.1,0.4,0.2
			C40.8,26.9,41.2,27.2,41.4,27.6L41.4,27.6z M32,37.1c0.1,0,0.3,0,0.4-0.1c0.1,0,0.2-0.1,0.2-0.2c0.1-0.2,0.2-0.3,0.1-0.5
			c0-0.1-0.1-0.1-0.1-0.2c-0.1-0.1-0.1-0.2-0.2-0.2c-0.1-0.1-0.2-0.2-0.3-0.4c0,0-0.1,0-0.1-0.1c-0.1,0-0.1,0-0.2,0c0,0-0.1,0-0.1,0
			c-0.1,0.2-0.2,0.3-0.4,0.5c0,0-0.1,0.1-0.1,0.1c0,0.1-0.1,0.1-0.1,0.2c0,0.1,0,0.2,0,0.3c0,0.1,0.1,0.2,0.1,0.2
			c0.1,0.1,0.1,0.1,0.2,0.2C31.8,37,31.9,37.1,32,37.1z M29.1,32.8c0,0.1,0,0.1,0,0.1c0,0.1,0,0.1,0.1,0.1c0.1,0.1,0.2,0.2,0.4,0.3
			c0.1,0,0.1,0.1,0.2,0.1c0.1,0,0.2,0.1,0.2,0.1c0.3,0,0.6-0.1,0.7-0.4c0,0,0-0.1,0-0.1c0.1-0.2,0-0.4-0.1-0.6
			c-0.1-0.1-0.1-0.2-0.3-0.3c0,0-0.1,0-0.1,0c-0.2,0-0.3,0-0.5,0.1c-0.1,0-0.1,0.1-0.2,0.1c-0.2,0.1-0.3,0.2-0.4,0.4
			C29.1,32.6,29.1,32.7,29.1,32.8C29.1,32.7,29.1,32.8,29.1,32.8z M58.5,34.1c0,0,0-0.1,0-0.1c0-0.1,0-0.2-0.1-0.3
			c0-0.1-0.1-0.1-0.2-0.2c-0.1-0.1-0.3-0.1-0.5-0.1c0,0-0.1,0-0.1,0c0,0-0.1,0-0.1,0c-0.1,0-0.2,0.1-0.3,0.1
			c-0.1,0.1-0.2,0.2-0.2,0.4c0,0.2,0,0.3,0.1,0.4c0,0.1,0.1,0.1,0.1,0.2c0.1,0.1,0.2,0.2,0.3,0.4c0,0,0.1,0,0.1,0c0.1,0,0.1,0,0.2,0
			c0,0,0,0,0.1,0c0.2-0.1,0.3-0.3,0.4-0.5c0,0,0-0.1,0.1-0.1c0,0,0-0.1,0.1-0.2C58.5,34.1,58.5,34.1,58.5,34.1z M54,30
			C53.9,30,53.9,30,54,30c-0.1,0-0.2,0-0.2,0.1c-0.1,0.1-0.2,0.2-0.3,0.3c-0.1,0.1-0.1,0.1-0.1,0.2c-0.1,0.1-0.1,0.2-0.1,0.3
			c0,0.1,0,0.3,0,0.4c0.1,0.2,0.2,0.3,0.4,0.3c0.1,0,0.1,0,0.2,0c0,0,0.1,0,0.1,0c0.1,0,0.2,0,0.4-0.1c0.2-0.1,0.3-0.2,0.3-0.4
			c0-0.1,0-0.1,0-0.2c0-0.1-0.1-0.2-0.1-0.3c-0.1-0.2-0.3-0.4-0.4-0.5C54.1,30.1,54.1,30.1,54,30C54,30,54,30,54,30z M29.1,42.4
			c-0.1,0-0.1,0-0.2,0c-0.2,0.1-0.3,0.2-0.4,0.4c-0.1,0.1-0.1,0.2,0,0.3c0.1,0.2,0.2,0.3,0.4,0.4c0,0,0,0,0,0c0.1,0,0.2,0,0.2,0
			c0.1,0,0.1-0.1,0.2-0.1c0.2-0.1,0.3-0.3,0.5-0.4c0,0,0-0.1,0-0.1c-0.2-0.2-0.4-0.3-0.5-0.4c0,0-0.1,0-0.1-0.1
			C29.2,42.4,29.2,42.4,29.1,42.4z M52.7,35.6c0-0.1,0-0.1,0-0.1c0-0.1-0.1-0.1-0.1-0.2c-0.1-0.1-0.2-0.2-0.3-0.3c0,0-0.1,0-0.1,0
			c-0.1,0.1-0.3,0.2-0.4,0.3c0,0-0.1,0.1-0.1,0.1c-0.1,0.1-0.1,0.2,0,0.3c0,0.1,0.1,0.1,0.1,0.2c0.1,0.2,0.2,0.3,0.3,0.5
			c0,0,0,0,0,0c0,0,0,0,0.1,0c0.2-0.2,0.3-0.4,0.5-0.6C52.7,35.7,52.7,35.7,52.7,35.6C52.7,35.6,52.7,35.6,52.7,35.6z M42.2,33.1
			c0-0.1,0-0.2-0.1-0.2c-0.1-0.1-0.3-0.3-0.4-0.4c0,0,0,0-0.1,0c-0.2,0.1-0.3,0.2-0.4,0.4c0,0,0,0.1-0.1,0.1c-0.1,0.1-0.1,0.2,0,0.3
			c0,0,0,0.1,0.1,0.1c0.1,0.2,0.3,0.4,0.4,0.6c0,0,0.1,0,0.1,0c0.1-0.2,0.3-0.3,0.4-0.5c0,0,0.1-0.1,0.1-0.1
			C42.2,33.2,42.2,33.1,42.2,33.1z M48.6,29.6C48.5,29.6,48.5,29.6,48.6,29.6c-0.2-0.2-0.3-0.3-0.4-0.4c0,0-0.1-0.1-0.1-0.1
			c-0.1-0.1-0.2-0.1-0.3,0c-0.1,0.1-0.2,0.2-0.3,0.3c-0.1,0.1-0.1,0.2,0,0.3c0,0,0,0,0,0c0.1,0.1,0.2,0.3,0.3,0.4
			c0.1,0.1,0.2,0.1,0.3,0c0,0,0.1,0,0.1-0.1C48.2,29.9,48.4,29.8,48.6,29.6C48.5,29.7,48.5,29.7,48.6,29.6
			C48.5,29.6,48.5,29.6,48.6,29.6z M28.5,39C28.5,39,28.5,39,28.5,39c-0.2,0.1-0.3,0.2-0.4,0.3c0,0-0.1,0.1-0.1,0.1
			c0,0.1,0,0.2,0,0.2c0,0,0,0,0,0.1c0.1,0.1,0.3,0.4,0.5,0.5c0,0,0,0,0.1,0c0.2-0.2,0.3-0.4,0.4-0.6c0,0,0,0,0,0c0-0.1,0-0.2,0-0.3
			c0,0-0.1-0.1-0.1-0.1C28.8,39.1,28.7,39.1,28.5,39C28.6,39,28.6,39,28.5,39z"/>
		<path class="st0" d="M53.7,54c0.4,0,0.9,0,1.4,0c0.2,0,0.5,0,0.7-0.1c0.3,0,0.6-0.1,0.9-0.2c0.4-0.1,0.7-0.2,1.1-0.3
			c0.3-0.1,0.6-0.2,0.8-0.4c0.1-0.1,0.2-0.2,0.4-0.2c0.6-0.3,1.2-0.6,1.9-0.7c0.3,0,0.5-0.1,0.8-0.1c0.3,0,0.6,0,0.9,0
			c0.3,0,0.6,0.1,0.8,0.1c0.2,0,0.4,0.1,0.6,0.1c0.3,0.1,0.7,0.1,1.1,0.2c0.3,0,0.6,0,0.9,0c0.2,0,0.4,0,0.6-0.1
			c0.6-0.1,1.2-0.4,1.7-0.8c0.7-0.5,1.1-1.2,1.4-2c0.2-0.5,0.2-1.1,0.2-1.6c0-0.2,0-0.3,0-0.5c0-0.2-0.1-0.4-0.1-0.6
			c-0.1-0.3-0.1-0.7-0.1-1c0-0.4,0-0.8,0-1.2c0-0.3,0-0.5,0-0.8c0-0.3-0.1-0.5-0.1-0.8c0,0,0,0,0-0.1c0-0.1,0-0.1,0-0.2
			c0,0,0-0.1,0.1-0.1c0.2-0.2,0.3-0.3,0.5-0.5c0,0,0.1,0,0.1,0c0,0,0,0.1,0.1,0.1c0.1,0.3,0.3,0.6,0.3,1c0.1,0.4,0.1,0.8,0.1,1.2
			c0,0.2,0,0.4-0.1,0.6c0,0.1,0,0.3,0,0.4c0,0.2,0,0.4,0.1,0.6c0.1,0.2,0.1,0.4,0.1,0.7c0.1,0.5,0.1,1,0.1,1.5
			c-0.1,1.3-0.6,2.5-1.4,3.6c-0.2,0.3-0.5,0.5-0.8,0.8c-0.1,0.1-0.2,0.2-0.3,0.3c-0.2,0.2-0.3,0.4-0.4,0.6c0,0.1,0,0.2-0.1,0.3
			c-0.1,0.6-0.3,1.2-0.5,1.9c-0.2,0.7-0.5,1.3-0.9,2c-0.7,1.2-1.5,2.1-2.6,2.9c-0.7,0.5-1.5,0.9-2.4,1.1c-0.3,0.1-0.6,0.1-0.9,0.2
			c-0.5,0.1-1,0.1-1.4,0.1c-0.1,0-0.3,0-0.4,0c-0.3,0-0.6-0.1-0.9-0.1c-0.2,0-0.3-0.1-0.5-0.1c-0.2,0-0.4-0.1-0.6-0.1
			c-0.1,0-0.1,0-0.2,0c0,0-0.1,0-0.1,0.1c0,0.1,0,0.1,0,0.2c0.2,0.6,0.4,1.2,0.5,1.9c0.3,1,0.6,2,0.9,3c0,0,0,0.1,0,0.1
			c0,0.1,0,0.1-0.1,0.1c-0.1,0-0.2,0-0.3,0c-0.3,0-0.6-0.1-0.9-0.1c-0.2,0-0.5-0.1-0.7-0.1c-0.2,0-0.4,0-0.5-0.1
			c-0.2,0-0.4-0.1-0.6-0.1c0,0-0.1,0-0.1,0c-0.1,0-0.2-0.1-0.2-0.1c-0.1-0.1-0.1-0.2-0.2-0.3c-0.1-0.2-0.2-0.3-0.3-0.5
			c-0.2-0.5-0.5-0.9-0.7-1.4c-0.2-0.4-0.4-0.7-0.6-1.1c-0.2-0.3-0.3-0.5-0.5-0.8c-0.5-0.7-1.1-1.3-1.8-1.7c-0.3-0.2-0.6-0.4-0.9-0.5
			c-0.4-0.3-0.8-0.6-1.2-0.9c-0.4-0.4-0.8-0.8-1.1-1.2c-0.2-0.3-0.4-0.5-0.5-0.8c0-0.1-0.1-0.1-0.1-0.2c0-0.1-0.1-0.1-0.2-0.2
			c-0.1,0-0.1-0.1-0.2-0.1c0,0-0.1,0-0.1-0.1c0,0,0-0.1,0-0.1c0,0,0.1,0,0.1-0.1c1-0.5,2-0.9,3-1.3c0.4-0.2,0.9-0.4,1.3-0.5
			c0.2-0.1,0.4-0.1,0.5-0.2c0.2,0,0.4-0.1,0.6-0.1c0.1,0,0.2,0,0.3,0c0.5,0,1,0,1.5,0C53.6,54,53.6,54,53.7,54z M55.1,54.9
			c-0.3,0-0.5,0-0.8,0c0,0-0.1,0-0.1,0c0,0,0,0-0.1,0c-0.1,0-0.1,0-0.1,0.1c0.1,0.3,0.2,0.5,0.3,0.8c0.1,0.1,0.1,0.3,0.2,0.4
			c0.2,0.3,0.4,0.6,0.7,0.9c0.3,0.3,0.7,0.6,1.2,0.9c0.3,0.2,0.6,0.3,0.9,0.4c0.3,0.1,0.6,0.2,0.9,0.3c0.7,0.2,1.5,0.4,2.2,0.5
			c0.6,0.1,1.3,0.3,1.9,0.4c0.1,0,0.3,0.1,0.4,0.1c0.1,0,0.1,0,0.2,0c0.2,0,0.4-0.1,0.6-0.2c0.1-0.1,0.2-0.2,0.3-0.4
			c0,0,0-0.1,0-0.1c-0.1-0.1-0.2-0.1-0.3-0.1c-0.9-0.4-1.7-0.7-2.6-1.1c-0.5-0.2-1-0.4-1.6-0.6C59.2,57.1,59,57,58.9,57
			c-0.3-0.1-0.5-0.1-0.8-0.1c-0.2,0-0.3,0-0.5-0.1c0,0-0.1,0-0.1,0c0,0-0.1,0-0.1,0.1c0,0.1,0,0.2,0,0.2c0,0,0,0.1,0,0.1
			c0.1,0,0.1,0.1,0.2,0.1c0.7,0.2,1.3,0.4,2,0.7c0.5,0.2,1.1,0.4,1.6,0.5c0.1,0,0.1,0,0.2,0.1c0,0,0,0,0,0c0,0,0,0.1,0,0.1
			c0,0-0.1,0-0.1,0c-0.1,0-0.2,0-0.2,0c-0.2,0-0.4-0.1-0.6-0.1c-0.4-0.1-0.7-0.1-1.1-0.3c-0.4-0.1-0.7-0.3-1.1-0.5
			c-0.3-0.1-0.6-0.3-0.9-0.5c-0.3-0.2-0.5-0.3-0.8-0.5c-0.3-0.2-0.7-0.4-1-0.5c-0.1,0-0.1,0-0.1-0.1c0,0-0.1,0-0.1-0.1
			c-0.1-0.1-0.1-0.2-0.1-0.3c0-0.1,0-0.2,0.1-0.3c0,0,0,0,0-0.1c0,0,0,0,0.1,0c0,0.1,0.1,0.1,0.1,0.2c0,0.1,0.1,0.1,0.1,0.2
			c0.1,0.1,0.2,0.2,0.4,0.2c0.2,0.1,0.3,0.1,0.5,0.1c0.1,0,0.2,0,0.2,0c0.3,0.1,0.6,0.1,0.9,0.1c0.2,0,0.5-0.1,0.7-0.1
			c0.4-0.1,0.8-0.3,1.1-0.5c0.3-0.1,0.5-0.3,0.8-0.5c0.1-0.1,0.2-0.2,0.3-0.2c0.2-0.2,0.5-0.3,0.8-0.4c0.2-0.1,0.5-0.1,0.7-0.2
			c0.3,0,0.5,0,0.8,0c0.1,0,0.2,0,0.2,0c0.3,0.1,0.7,0.1,1,0c0.2,0,0.5-0.1,0.7-0.1c0.6-0.1,1.1-0.4,1.7-0.6c0.1,0,0.1-0.1,0.2-0.1
			c0.1-0.1,0.1-0.1,0.1-0.2c0,0,0-0.1,0-0.1c0,0-0.1,0-0.1,0c-0.2,0-0.4-0.1-0.7-0.1c-0.2,0-0.4-0.1-0.6-0.1c-0.2,0-0.4-0.1-0.7-0.1
			c-0.4-0.1-0.7-0.1-1.1-0.2c-0.2,0-0.4-0.1-0.6-0.1c-0.2,0-0.4-0.1-0.6-0.1c-0.3,0-0.7,0-1,0c-0.2,0-0.5,0.1-0.7,0.1
			c-0.5,0.1-0.9,0.3-1.2,0.6c-0.1,0.1-0.2,0.1-0.2,0.2c-0.7,0.5-1.6,0.8-2.5,1c-0.2,0-0.4,0.1-0.6,0.1c-0.2,0-0.5,0-0.7,0
			C55.4,54.9,55.2,54.9,55.1,54.9z M56.2,65.5C56.2,65.5,56.2,65.5,56.2,65.5c0.1,0,0.2,0,0.3,0c0,0,0.1,0,0.1,0
			c0.1,0,0.1-0.1,0.1-0.1c0,0,0-0.1,0-0.1c0-0.2-0.1-0.3-0.1-0.5c-0.2-0.6-0.4-1.2-0.5-1.8c-0.1-0.4-0.2-0.8-0.3-1.1
			c-0.1-0.2-0.1-0.5-0.3-0.7c-0.2-0.3-0.4-0.6-0.8-0.8c-0.1,0-0.2-0.1-0.2-0.1c-0.2-0.1-0.4-0.2-0.6-0.3c-0.2-0.1-0.3-0.3-0.5-0.4
			c-0.2-0.2-0.5-0.4-0.7-0.6c-0.4-0.4-0.7-0.8-1-1.2c-0.3-0.5-0.6-0.9-0.8-1.4c-0.1-0.3-0.2-0.5-0.3-0.8c0,0,0-0.1-0.1-0.1
			c0,0-0.1-0.1-0.1,0c0,0,0,0-0.1,0c-0.3,0.1-0.6,0.2-0.9,0.3c0,0-0.1,0-0.1,0c0,0,0,0,0,0c0,0,0,0.1,0,0.1c0.1,0.4,0.3,0.7,0.5,1
			c0.2,0.2,0.3,0.5,0.5,0.7c0.2,0.3,0.5,0.5,0.7,0.8c0.1,0.1,0.2,0.2,0.2,0.2c0,0,0,0,0.1,0.1c0,0,0,0,0,0c0,0,0,0-0.1,0
			c-0.4-0.2-0.8-0.5-1.1-0.8c-0.3-0.3-0.6-0.7-0.9-1.1c-0.1-0.1-0.1-0.3-0.2-0.4c-0.1-0.1-0.1-0.2-0.2-0.3c-0.1-0.2-0.3-0.3-0.6-0.2
			c-0.2,0-0.4,0.1-0.6,0.2c-0.1,0-0.1,0.1-0.1,0.1c0.1,0.3,0.3,0.6,0.4,0.8c0.6,0.9,1.3,1.6,2.2,2.1c0.1,0.1,0.3,0.1,0.4,0.2
			c1,0.5,1.8,1.3,2.5,2.2c0.2,0.3,0.4,0.6,0.6,0.9c0.4,0.7,0.8,1.4,1.1,2.1c0.1,0.1,0.1,0.3,0.2,0.4c0.1,0.1,0.2,0.2,0.2,0.3
			c0.1,0.1,0.2,0.1,0.3,0.2c0.1,0,0.3,0.1,0.4,0.1C56.1,65.5,56.2,65.5,56.2,65.5z M53.2,55C53.2,55,53.2,55,53.2,55
			c-0.1,0-0.2,0-0.3,0c0,0,0,0-0.1,0c0,0,0,0-0.1,0c0,0-0.1,0-0.1,0.1c0,0,0,0,0,0.1c0,0.1,0,0.2,0,0.2c0.2,0.8,0.7,1.6,1.3,2.2
			c0.3,0.3,0.6,0.6,1,0.8c0.4,0.2,0.8,0.4,1.2,0.6c0.5,0.2,1,0.4,1.5,0.5c0.3,0.1,0.6,0.2,0.9,0.3c0.5,0.2,1.1,0.3,1.6,0.5
			c0.3,0.1,0.6,0.1,0.9,0.1c0,0,0.1,0,0.1,0c0.3-0.1,0.6-0.2,0.8-0.4c0,0,0,0,0-0.1c0,0,0-0.1-0.1-0.1c0,0-0.1,0-0.1,0
			c-0.3-0.1-0.5-0.1-0.8-0.2c-0.6-0.1-1.2-0.3-1.8-0.4c-0.4-0.1-0.9-0.2-1.3-0.3c-0.4-0.1-0.9-0.3-1.3-0.5c-0.3-0.2-0.7-0.3-1-0.5
			c-0.3-0.2-0.6-0.5-0.9-0.8c-0.4-0.4-0.7-0.9-0.9-1.5c-0.1-0.2-0.1-0.4-0.2-0.6c0,0,0-0.1,0-0.1c0,0-0.1-0.1-0.1-0.1
			C53.4,55,53.3,55,53.2,55z M58.8,60.6c0.2,0,0.5,0,0.8-0.1c0,0,0,0,0,0c0,0,0,0,0,0c0,0-0.1,0-0.1,0c-0.2,0-0.5-0.1-0.7-0.2
			c-0.2-0.1-0.4-0.2-0.7-0.2c-0.5-0.2-1-0.3-1.5-0.5c-0.4-0.1-0.8-0.3-1.1-0.5c-0.4-0.2-0.7-0.4-1-0.6c-0.7-0.5-1.3-1.2-1.7-2
			c-0.1-0.3-0.3-0.6-0.4-0.9c0-0.1-0.1-0.2-0.1-0.3c0-0.1-0.1-0.1-0.1-0.2c-0.1-0.1-0.3-0.2-0.4-0.1c-0.1,0-0.3,0.1-0.4,0.1
			c0,0-0.1,0.1-0.1,0.1c0,0.1,0.1,0.2,0.1,0.3c0.2,0.5,0.4,1,0.7,1.5c0.4,0.5,0.8,1,1.3,1.5c0.9,0.8,1.8,1.3,2.9,1.7
			c0.4,0.2,0.9,0.3,1.3,0.4c0.2,0.1,0.4,0.1,0.6,0.1C58.4,60.6,58.6,60.6,58.8,60.6z M64.1,57.1C64.1,57.1,64.2,57.1,64.1,57.1
			c0.3,0,0.6,0,0.9-0.1c0.1,0,0.2-0.1,0.3-0.1c0.3-0.1,0.6-0.3,0.7-0.7c0.1-0.1,0.1-0.3,0.1-0.4c0,0,0,0,0-0.1c0,0,0,0-0.1,0
			c-0.2,0-0.3,0.1-0.5,0.1c-0.4,0.1-0.7,0.2-1.1,0.3c-0.2,0-0.5,0.1-0.7,0.1c-0.2,0-0.5,0-0.7-0.1c-0.2-0.1-0.5-0.1-0.7-0.2
			c-0.3-0.1-0.7-0.2-1-0.3c-0.1,0-0.2-0.1-0.3-0.1c0,0-0.1,0-0.1,0c-0.2,0-0.4,0.1-0.5,0.2c0,0,0,0.1,0,0.1c0,0,0,0,0.1,0.1
			c0.2,0.2,0.4,0.3,0.7,0.4c0.4,0.2,0.8,0.3,1.2,0.5C62.9,57,63.5,57.1,64.1,57.1z M59.6,56.4c-0.1,0-0.2,0-0.3,0c0,0-0.1,0-0.1,0.1
			c0,0.1,0,0.1,0,0.2c0,0,0,0,0,0.1c0,0,0.1,0,0.1,0.1c0.4,0.2,0.8,0.4,1.2,0.5c0.4,0.2,0.7,0.3,1.1,0.5c0.6,0.2,1.1,0.4,1.7,0.5
			c0.2,0.1,0.5,0.1,0.7,0.2c0.3,0.1,0.6,0,0.9-0.3c0.1-0.1,0.2-0.3,0.3-0.5c0,0,0-0.1-0.1-0.1c0,0,0,0-0.1,0c-0.3,0-0.6,0-0.9-0.1
			c-0.2,0-0.5,0-0.7-0.1c-0.5-0.1-1-0.2-1.4-0.3c-0.2-0.1-0.4-0.2-0.7-0.3c-0.3-0.1-0.5-0.2-0.8-0.3c-0.4-0.1-0.3-0.1-0.8-0.2
			C59.7,56.4,59.6,56.4,59.6,56.4z M63.7,55.9c0.2,0,0.5,0,0.7,0c0.4-0.1,0.7-0.1,1-0.2c0.3-0.1,0.5-0.2,0.7-0.3
			c0.1,0,0.2-0.1,0.2-0.2c0.1-0.1,0.2-0.3,0.2-0.4c0,0,0,0,0-0.1c0,0,0-0.1-0.1-0.1c0,0-0.1,0-0.1,0c-0.1,0-0.1,0-0.2,0.1
			c-0.3,0.1-0.7,0.3-1.1,0.3c-0.4,0.1-0.7,0.2-1.1,0.2c-0.1,0-0.1,0-0.2,0c-0.4,0-0.9,0-1.3,0c-0.1,0-0.1,0-0.2,0
			c-0.1,0-0.2,0-0.4,0c-0.1,0-0.2,0-0.3,0c-0.1,0-0.2,0.1-0.3,0.1c0,0-0.1,0.1,0,0.1c0,0,0,0.1,0.1,0.1c0,0,0,0,0.1,0
			c0.3,0.1,0.6,0.3,0.9,0.3c0.2,0.1,0.5,0.1,0.8,0.1C63.4,55.9,63.6,55.9,63.7,55.9z"/>
		<path class="st0" d="M30.7,60.1c-0.1,0-0.2,0-0.3,0c0,0-0.1,0-0.1-0.1c0-0.1,0-0.1,0-0.2c0-0.3-0.1-0.5-0.1-0.8c0,0,0,0,0-0.1
			c0,0,0-0.1,0.1-0.1c0.2,0,0.4-0.1,0.6-0.1c1.4-0.3,2.8-0.7,4.1-1.1c2.6-0.7,5.2-1.6,7.7-2.5c2.4-0.9,4.7-1.9,7.1-2.9
			c3.8-1.7,7.4-3.7,10.9-5.9c3.1-1.9,6-4.1,8.8-6.4c0.6-0.5,1.1-0.9,1.7-1.4c0.1,0,0.1-0.1,0.2-0.1c0,0,0.1,0,0.1,0c0,0,0,0,0,0
			c0.3,0.2,0.5,0.4,0.8,0.7c0,0,0,0,0,0.1c0,0,0,0,0,0.1c0,0-0.1,0.1-0.1,0.1c-0.3,0.3-0.6,0.5-0.9,0.8c-0.5,0.5-1.1,1-1.6,1.5
			c-1.3,1.1-2.7,2.2-4,3.2c-1.6,1.1-3.2,2.2-4.8,3.1c-1.7,1-3.4,2-5.1,2.9c-2,1.1-4,2.1-6,3c-2.8,1.3-5.7,2.5-8.6,3.5
			c-1.8,0.6-3.7,1.2-5.6,1.7c-0.6,0.2-1.2,0.3-1.8,0.5c-0.4,0.1-0.9,0.2-1.3,0.3c-0.4,0.1-0.7,0.2-1.1,0.2
			C31.1,60.1,30.8,60.1,30.7,60.1z"/>
		<path class="st0" d="M42.1,76.1c0-0.3,0-0.7,0-1c0-0.1,0-0.2,0-0.3c0-0.1,0-0.2,0.1-0.3c0-0.1,0.1-0.1,0.2-0.2
			c0.3-0.3,0.5-0.5,0.8-0.8c1.3-1.3,2.6-2.5,3.9-3.8c0,0,0.1-0.1,0.1-0.1c0,0,0.1,0,0.1,0c0,0,0.1,0.1,0.1,0.1
			c1.5,1.5,3.1,3,4.6,4.6c0.1,0.1,0.1,0.1,0.2,0.2c0.1,0.1,0.2,0.2,0.2,0.3c0,0.1,0,0.1,0,0.2c0,0.1,0,0.1,0,0.2c0,0.8,0,1.5,0,2.3
			c0,0,0,0.1,0,0.1c0,0,0,0,0,0c0,0,0,0-0.1,0c0,0-0.1,0-0.1-0.1c-0.1-0.1-0.1-0.1-0.2-0.2c-1.5-1.5-3-3.1-4.5-4.6
			c-0.1-0.1-0.1-0.1-0.2-0.2c-0.1-0.1-0.1-0.1-0.1,0c-0.1,0.1-0.1,0.1-0.2,0.2c-1.6,1.6-3.1,3.1-4.7,4.7c-0.1,0.1-0.1,0.2-0.2,0.2
			c0,0,0,0-0.1,0c0,0,0,0,0-0.1c0-0.1,0-0.2,0-0.2C42.1,76.9,42.1,76.5,42.1,76.1C42.1,76.1,42.1,76.1,42.1,76.1z"/>
		<path class="st0" d="M42.1,70c0-0.4,0-0.8,0-1.1c0-0.1,0-0.2,0-0.3c0-0.1,0-0.1,0.1-0.2c0-0.1,0.1-0.1,0.1-0.2
			c0.1-0.1,0.2-0.2,0.2-0.2c1.2-1.2,2.4-2.3,3.5-3.5c0.3-0.3,0.7-0.7,1-1c0,0,0.1-0.1,0.1-0.1c0,0,0,0,0.1,0c0,0,0.1,0.1,0.1,0.1
			c0.3,0.3,0.5,0.5,0.8,0.8c1.3,1.3,2.6,2.6,3.9,3.9c0.1,0.1,0.2,0.2,0.2,0.2c0.1,0.1,0.1,0.2,0.2,0.3c0,0,0,0.1,0,0.1
			c0,0.1,0,0.2,0,0.2c0,0.7,0,1.5,0,2.2c0,0,0,0,0,0.1c0,0,0,0.1,0,0.1c0,0,0,0-0.1,0c0,0-0.1-0.1-0.1-0.1c-0.3-0.3-0.7-0.7-1-1
			c-1.2-1.2-2.4-2.4-3.6-3.6c-0.1-0.1-0.1-0.1-0.2-0.2c0,0-0.1,0-0.1,0c0,0-0.1,0.1-0.1,0.1c-0.9,0.8-1.7,1.7-2.6,2.5
			c-0.8,0.8-1.5,1.5-2.3,2.3c-0.1,0.1-0.1,0.1-0.2,0.2c0,0,0,0-0.1,0c0,0,0,0,0,0c0-0.1,0-0.1,0-0.2C42.1,70.9,42.1,70.5,42.1,70
			C42.1,70,42.1,70,42.1,70z"/>
		<path class="st0" d="M48.1,43.5c0.1,0,0.2,0,0.3,0c0,0,0,0,0,0c0,0,0,0,0,0.1c-0.2,0.1-0.3,0.2-0.5,0.2c-0.1,0-0.1,0.1-0.2,0.1
			c-0.3,0.1-0.6,0.3-0.8,0.5c-0.2,0.3-0.4,0.6-0.5,0.9c-0.1,0.3-0.1,0.6,0,1c0,0.2,0.1,0.5,0.2,0.7c0,0,0.1,0.1,0.1,0.1c0,0,0,0,0,0
			c0,0,0,0,0,0c0.4-0.1,0.7-0.1,1.1-0.2c0.4-0.1,0.9-0.2,1.3-0.2c0.3-0.1,0.6-0.1,0.9-0.2c0.3-0.1,0.6-0.1,0.8-0.2
			c0.2,0,0.4-0.1,0.6-0.1c0.1,0,0.2,0,0.2-0.1c0.1,0,0.2-0.1,0.2-0.1c0.1-0.1,0.2-0.2,0.3-0.3c0-0.1,0.1-0.1,0.1-0.2
			c0.1-0.1,0.1-0.2,0.2-0.3c0.2-0.2,0.3-0.3,0.6-0.3c0,0,0,0,0,0c0.3,0,0.6,0,0.9,0.1c0.2,0.1,0.4,0.2,0.6,0.5
			c0.1,0.1,0.1,0.3,0.2,0.4c0,0.1,0,0.1,0,0.2c0,0.2,0,0.4-0.1,0.6c-0.1,0.2-0.2,0.4-0.4,0.5c-0.2,0.1-0.4,0.2-0.7,0.3
			c-0.1,0-0.3,0-0.4,0c-0.2,0-0.4-0.1-0.5-0.3c-0.1,0-0.1-0.1-0.2-0.1c-0.1,0-0.1-0.1-0.2-0.1c-0.2-0.1-0.3-0.1-0.5,0
			c-0.6,0.1-1.3,0.2-1.9,0.4c-0.6,0.1-1.2,0.2-1.8,0.3c-0.3,0.1-0.6,0.1-0.9,0.2c-1.3,0.2-2.6,0.6-3.8,1.2c-0.7,0.4-1.4,0.8-2.1,1.3
			c-0.3,0.2-0.6,0.4-0.9,0.6c0,0-0.1,0-0.1,0c0,0,0-0.1-0.1-0.1c0,0,0-0.1,0-0.1c0,0,0.1-0.1,0.1-0.1c0.4-0.5,0.9-0.9,1.4-1.3
			c0.4-0.3,0.7-0.5,1.1-0.7c0.4-0.2,0.8-0.4,1.2-0.6c0.1,0,0.1-0.1,0.2-0.1c0.1,0,0.1-0.1,0.1-0.2c0,0,0-0.1-0.1-0.1c0,0,0,0-0.1,0
			c-0.9-0.2-1.7-0.5-2.6-0.7c0,0-0.1,0-0.1,0c0,0,0,0.1,0,0.1c-0.1,0.1-0.1,0.2-0.2,0.3c0,0.1-0.1,0.2-0.2,0.3
			c-0.1,0.2-0.3,0.3-0.5,0.4c-0.2,0.1-0.5,0.1-0.7,0.1c-0.3-0.1-0.5-0.2-0.7-0.4c-0.2-0.2-0.3-0.5-0.3-0.8c0-0.5,0.3-1,0.8-1.2
			c0.1-0.1,0.3-0.1,0.4-0.1c0.3,0,0.6,0.1,0.8,0.3c0,0,0.1,0.1,0.1,0.1c0.1,0.1,0.3,0.2,0.4,0.3c0.1,0,0.1,0,0.2,0
			c0.4,0.1,0.7,0.2,1,0.3c0.4,0.1,0.8,0.3,1.2,0.4c0.2,0.1,0.4,0.1,0.6,0.2c0.2,0.1,0.5,0.1,0.8,0.2c0.1,0,0.3,0.1,0.4,0.1
			c0,0,0.1,0,0.1-0.1c0,0,0,0,0,0c0-0.2-0.1-0.3-0.1-0.5c0-0.3,0-0.7,0-1c0-0.3,0.1-0.5,0.2-0.8c0.2-0.4,0.4-0.7,0.8-0.9
			c0.2-0.2,0.5-0.3,0.8-0.4C47.8,43.5,47.8,43.5,48.1,43.5z M53.4,46.8c0.1,0,0.1,0,0.2,0c0.1,0,0.2-0.1,0.3-0.1
			c0.2-0.1,0.3-0.4,0.3-0.6c0-0.1-0.1-0.2-0.1-0.3c-0.1-0.2-0.3-0.4-0.5-0.5c0,0,0,0-0.1,0c-0.1,0-0.1,0-0.2,0c-0.1,0-0.1,0-0.1,0.1
			c-0.1,0.1-0.2,0.2-0.3,0.3c0,0.1-0.1,0.1-0.1,0.2c-0.1,0.1-0.1,0.3-0.1,0.5c0,0,0,0.1,0,0.1c0.1,0.2,0.3,0.3,0.5,0.4
			C53.3,46.8,53.3,46.8,53.4,46.8z M40.9,46.7C40.9,46.7,40.9,46.7,40.9,46.7c0-0.2,0-0.3-0.1-0.4c0,0,0-0.1-0.1-0.1
			c-0.1-0.1-0.2-0.3-0.3-0.4c0,0-0.1,0-0.1,0c-0.1,0-0.1,0-0.2,0c0,0-0.1,0-0.1,0c-0.1,0.1-0.2,0.3-0.3,0.4c0,0.1-0.1,0.1-0.1,0.2
			c0,0.1,0,0.2,0,0.3c0.1,0.2,0.3,0.4,0.5,0.5c0.1,0.1,0.2,0.1,0.3,0.1c0.2,0,0.3-0.1,0.4-0.2C40.8,47,40.9,46.9,40.9,46.7z"/>
		<path class="st0" d="M24,60.8c-0.3,0-0.5,0-0.8,0c-0.1,0-0.1,0-0.2,0c-0.5,0-0.9-0.1-1.4-0.2c-0.6-0.1-1.2-0.4-1.7-0.7
			c-0.3-0.2-0.5-0.3-0.7-0.5c-0.3-0.4-0.6-0.8-0.7-1.2c-0.1-0.3-0.1-0.6,0-0.9c0-0.3,0.1-0.6,0.2-0.8c0.1-0.3,0.2-0.6,0.3-0.8
			c0.1-0.3,0.3-0.7,0.4-1c0,0,0.1,0,0.1,0c0,0,0,0,0,0c0,0,0,0,0.1,0c0.3,0.2,0.5,0.3,0.8,0.5c0,0,0.1,0,0.1,0.1c0,0,0,0.1,0,0.1
			c-0.1,0.1-0.1,0.3-0.2,0.4c-0.1,0.2-0.2,0.4-0.3,0.7c-0.1,0.1-0.1,0.3-0.1,0.4c-0.1,0.2-0.1,0.5-0.1,0.7c0,0.2,0,0.5,0.1,0.7
			c0.1,0.2,0.2,0.4,0.4,0.6c0.2,0.1,0.3,0.2,0.5,0.3c0.2,0.1,0.5,0.1,0.7,0.2c0.3,0.1,0.6,0.1,0.9,0.2c0.3,0,0.7,0.1,1,0.1
			c0.2,0,0.5,0.1,0.7,0.1c0.2,0,0.3,0,0.5,0c0.1,0,0.3,0,0.4,0c0,0,0.1,0,0.1,0.1c0,0,0,0,0,0.1c0,0,0,0.1,0,0.1
			c0,0.3,0.1,0.6,0.1,0.9c0,0.1,0,0.1-0.1,0.1c0,0,0,0-0.1,0c-0.1,0-0.1,0-0.2,0C24.7,60.8,24.3,60.8,24,60.8z"/>
		<path class="st0" d="M56.7,51.9c0.1,0,0.2,0,0.4,0c0.2,0,0.4,0,0.5,0c0.3,0,0.6-0.1,0.8-0.2c0.5-0.1,1-0.3,1.5-0.6
			c0.1-0.1,0.3-0.1,0.4-0.2c0.1-0.1,0.2-0.1,0.3-0.2c0.1-0.1,0.2-0.1,0.3-0.1c0,0,0,0,0-0.1c0,0,0,0-0.1-0.1
			c-0.2-0.1-0.5-0.3-0.7-0.4c-0.1-0.1-0.3-0.1-0.4-0.2c0,0-0.1-0.1,0-0.1c0,0,0,0,0-0.1c0,0,0,0,0,0c0,0,0.1-0.1,0.1,0
			c0.3,0,0.5,0.1,0.8,0.1c0.1,0,0.3,0.1,0.4,0.1c0.1,0,0.2,0.1,0.3,0.1c0.1,0,0.2,0,0.3,0c0,0,0.1,0,0.1-0.1
			c0.1-0.1,0.1-0.1,0.2-0.2c0.1-0.1,0.1-0.2,0.1-0.2c0.1-0.1,0.1-0.3,0.1-0.4c0.2-0.4,0.2-0.6,0.6-1c0.2-0.3,0.5-0.6,0.8-0.8
			c0,0,0.1,0,0.1,0c0,0,0,0,0.1,0c0,0,0,0.1,0,0.1c0,0,0,0.1-0.1,0.1c-0.2,0.3-0.3,0.7-0.5,1c-0.3,0.5-0.5,1-0.8,1.5
			c0,0,0,0.1-0.1,0.2c0,0,0,0.1,0,0.1c0.3,0.1,0.6,0.1,0.9,0.1c0.3,0,0.5-0.1,0.8-0.2c0.4-0.2,0.7-0.5,1-0.8
			c0.2-0.3,0.3-0.6,0.4-0.9c0.1-0.3,0.1-0.7,0.1-1c0-0.3,0-0.6,0-0.8c0-0.1,0-0.3,0-0.4c0.1-0.3,0.2-0.5,0.5-0.6c0,0,0,0,0,0
			c0,0,0.1,0,0.1,0c0,0,0,0,0,0.1c0,0.2,0,0.5,0,0.7c0,0.1,0,0.2,0,0.3c0,0.4-0.1,0.8-0.1,1.2c0,0.4-0.1,0.7-0.2,1.1
			c-0.1,0.3-0.2,0.6-0.4,0.9c-0.4,0.6-1,1-1.7,1.2c-0.4,0.1-0.8,0.1-1.3,0c-0.1,0-0.3,0-0.4,0c-0.3,0-0.6,0.1-0.9,0.2
			c-0.1,0.1-0.2,0.1-0.3,0.2c-0.4,0.3-0.8,0.5-1.2,0.6c-0.5,0.2-0.9,0.3-1.4,0.4c-0.6,0.1-1.2,0.1-1.7,0.1c-0.3,0-0.6,0-0.8-0.1
			c-0.1,0-0.3,0-0.4-0.1c0,0-0.1,0-0.1-0.1c0,0,0,0,0-0.1c0,0,0-0.1,0.1-0.1c0.2-0.1,0.4-0.1,0.6-0.1c0.1,0,0.2,0,0.4,0
			c0.1,0,0.3,0,0.4,0C56.5,51.9,56.6,51.9,56.7,51.9z"/>
		<path class="st0" d="M59.5,36.4c0.2,0,0.3,0,0.5,0.1c0.2,0.1,0.4,0.2,0.5,0.4c0.1,0.2,0.2,0.3,0.2,0.5c0,0,0,0,0,0.1
			c0,0.2,0,0.3,0,0.5c0,0.1-0.1,0.2-0.1,0.3c-0.1,0.1-0.2,0.3-0.3,0.4c-0.1,0.1-0.1,0.1-0.2,0.2c-0.1,0.1-0.1,0.1-0.2,0.2
			c-0.1,0.1-0.1,0.2-0.1,0.3c0,0,0,0,0,0.1c0,0.3,0,0.6,0,0.9c0,0.4-0.1,0.8-0.2,1.2c-0.3,1.1-0.8,2-1.6,2.7
			c-0.1,0.1-0.2,0.1-0.3,0.2c-0.1,0.1-0.1,0.1-0.1,0.2c0,0.1-0.1,0.3-0.1,0.4c0,0.3-0.1,0.8-0.1,1c-0.1,0.3-0.1,0.5-0.2,0.7
			c-0.2,0.5-0.6,0.8-1.1,1.1c0,0-0.1,0-0.1,0c0,0-0.1,0-0.1,0c0,0,0,0,0,0c0,0,0-0.1,0.1-0.1c0.1-0.2,0.3-0.3,0.4-0.5
			c0.2-0.3,0.3-0.5,0.4-0.8c0.1-0.4,0.2-0.8,0.2-1.3c0,0,0-0.1-0.1-0.1c0,0,0,0-0.1,0c-0.1,0.1-0.2,0.1-0.4,0.2
			c-0.2,0.1-0.4,0.2-0.6,0.2c-0.1,0-0.2,0-0.2,0c-0.1,0-0.2,0-0.2-0.1c0,0,0,0,0-0.1c0-0.1,0.1-0.1,0.1-0.2c0.1-0.1,0.2-0.2,0.3-0.3
			c0.1,0,0.1-0.1,0.2-0.1c0.5-0.2,1-0.5,1.5-0.9c0.7-0.6,1.3-1.4,1.6-2.3c0.1-0.3,0.2-0.6,0.2-1c0-0.3,0.1-0.6,0.1-1
			c0-0.1,0-0.1,0-0.2c0,0,0-0.1,0-0.1c-0.1-0.2-0.2-0.3-0.3-0.4c-0.1-0.1-0.1-0.1-0.2-0.2c-0.1-0.1-0.2-0.2-0.3-0.3
			c-0.2-0.2-0.2-0.5-0.2-0.8c0-0.2,0.1-0.4,0.2-0.5c0.2-0.3,0.4-0.5,0.7-0.6C59.2,36.4,59.4,36.4,59.5,36.4z M60.3,37.6
			c0-0.1,0-0.3-0.1-0.4c-0.1-0.1-0.2-0.2-0.4-0.3c-0.1,0-0.1,0-0.2,0c-0.1,0-0.1,0-0.2,0c0,0-0.1,0-0.1,0c-0.1,0-0.2,0.1-0.3,0.1
			c-0.2,0.2-0.3,0.4-0.2,0.7c0,0.1,0.1,0.2,0.2,0.3c0.1,0.1,0.2,0.3,0.3,0.4c0,0,0,0,0,0c0,0,0,0,0.1,0c0.1,0,0.1,0,0.2,0
			c0,0,0.1,0,0.1-0.1c0.1-0.1,0.2-0.2,0.3-0.4c0-0.1,0.1-0.1,0.1-0.2C60.2,37.9,60.3,37.7,60.3,37.6z"/>
		<path class="st0" d="M76.2,32.9c0,0.3-0.1,0.6-0.2,0.9c-0.1,0.3-0.2,0.6-0.3,0.8c-0.1,0.2-0.2,0.4-0.3,0.5c-0.2,0.3-0.4,0.7-0.6,1
			c0,0,0,0.1-0.1,0.1c0,0,0,0,0,0c0,0-0.1,0-0.1,0c-0.1-0.1-0.2-0.2-0.3-0.2c-0.2-0.1-0.3-0.3-0.5-0.4c0,0-0.1,0-0.1-0.1
			c0,0,0,0,0-0.1c0,0,0-0.1,0-0.1c0.1-0.2,0.2-0.3,0.3-0.5c0.1-0.2,0.2-0.4,0.3-0.7c0.1-0.3,0.3-0.6,0.3-0.9c0.1-0.3,0.1-0.6,0-0.9
			c0-0.2-0.1-0.4-0.3-0.6c-0.1-0.1-0.2-0.3-0.4-0.4c-0.1-0.1-0.3-0.2-0.4-0.2c-0.2-0.1-0.5-0.2-0.8-0.3c-0.2-0.1-0.4-0.1-0.6-0.2
			c0,0-0.1-0.1-0.1-0.1c0-0.2,0-0.5,0.1-0.7c0-0.1,0-0.2,0-0.3c0,0,0-0.1,0.1-0.1c0.1,0,0.1,0,0.2,0c0.3,0.1,0.6,0.1,0.9,0.2
			c0.3,0.1,0.5,0.2,0.8,0.3c0.3,0.2,0.7,0.3,0.9,0.6c0.2,0.2,0.4,0.4,0.5,0.6c0.2,0.3,0.3,0.6,0.4,0.9
			C76.2,32.4,76.2,32.6,76.2,32.9z"/>
		<path class="st0" d="M54.3,27.7c-0.5,0-0.9,0.1-1.4,0.3c-0.4,0.2-0.8,0.4-1.1,0.7c-0.3,0.2-0.5,0.5-0.7,0.8
			c-0.2,0.4-0.4,0.8-0.6,1.2c0,0.1-0.1,0.1-0.1,0.2c0,0.1-0.1,0.2-0.2,0.3c0,0,0,0-0.1,0.1c0,0,0,0-0.1,0c0,0-0.1,0-0.1-0.1
			c0-0.1,0-0.1-0.1-0.2c0-0.1,0-0.1,0-0.2c0.1-0.7,0.4-1.3,0.8-1.8c0.4-0.5,0.8-1,1.4-1.3c0.1-0.1,0.2-0.1,0.3-0.2
			c0.1-0.1,0.2-0.1,0.3-0.2c0.1,0,0.1-0.1,0.1-0.1c0.2-0.2,0.2-0.4,0.1-0.6c0-0.1-0.1-0.2-0.1-0.2c-0.1-0.2-0.3-0.3-0.4-0.4
			c0,0-0.1-0.1-0.1-0.1c0,0,0,0,0-0.1c0,0,0,0,0.1,0c0,0,0,0,0.1,0c0.1,0,0.1,0,0.2,0c0.2,0,0.3,0.1,0.4,0.2
			c0.1,0.1,0.2,0.2,0.2,0.3c0.1,0.2,0.2,0.3,0.3,0.5c0.1,0.1,0.1,0.2,0.2,0.3c0,0.1,0.1,0.1,0.1,0.1c0.1,0,0.1,0,0.2,0
			c0.1,0,0.2,0,0.3,0c0.6,0,1.2,0.1,1.8,0.3c0.4,0.1,0.7,0.3,1.1,0.5c0.1,0,0.2,0.1,0.2,0.1c0.1,0.1,0.2,0.1,0.4,0.1
			c0.1,0,0.2,0,0.3-0.1c0.2-0.1,0.4-0.1,0.6,0c0.3,0.1,0.5,0.2,0.7,0.5c0.1,0.2,0.1,0.4,0.1,0.7c0,0.2-0.1,0.4-0.2,0.6
			C59.1,29.9,59,30,58.9,30c-0.2,0.1-0.5,0.2-0.7,0.1c-0.2,0-0.3-0.1-0.4-0.2c-0.3-0.2-0.4-0.4-0.4-0.8c0-0.1,0-0.1,0-0.2
			c0-0.1,0-0.1,0-0.2c0-0.1-0.1-0.2-0.2-0.3c-0.1,0-0.1-0.1-0.2-0.1c-0.5-0.3-1-0.4-1.5-0.6c-0.2-0.1-0.4-0.1-0.6-0.1
			C54.6,27.7,54.4,27.7,54.3,27.7z M58.4,28.4C58.4,28.5,58.4,28.5,58.4,28.4c-0.1,0-0.2,0.1-0.2,0.1c-0.1,0.1-0.3,0.3-0.4,0.5
			c0,0,0,0,0,0.1c0.1,0.1,0.2,0.2,0.3,0.3c0,0,0.1,0.1,0.1,0.1c0.1,0,0.1,0.1,0.2,0.1c0,0,0.1,0,0.1,0c0.1,0,0.1-0.1,0.2-0.1
			c0.1-0.1,0.3-0.2,0.4-0.3c0,0,0,0,0,0c0,0,0-0.1,0-0.1c-0.2-0.1-0.3-0.3-0.5-0.4C58.6,28.5,58.5,28.5,58.4,28.4
			C58.5,28.4,58.4,28.4,58.4,28.4z"/>
		<path class="st0" d="M33.5,30.8c-0.1,0-0.3,0-0.4,0c-0.1,0-0.2,0-0.4,0c-0.1,0-0.2,0-0.3,0.1c0,0,0,0,0,0c0-0.1,0-0.1,0-0.2
			c0.1-0.2,0.2-0.4,0.4-0.6c0.2-0.3,0.5-0.6,0.8-0.8c0.6-0.4,1.2-0.8,1.9-0.9c0.3-0.1,0.6-0.1,0.9-0.1c0.1,0,0.2,0,0.3,0
			c0.2,0,0.4-0.1,0.6-0.2c0.1,0,0.1-0.1,0.2-0.1c0.2-0.1,0.4-0.1,0.5-0.2c0.2,0,0.4,0,0.6,0.2c0.2,0.1,0.3,0.3,0.4,0.6
			c0.1,0.4-0.1,0.8-0.4,1c-0.2,0.1-0.3,0.2-0.5,0.2c-0.2,0-0.4-0.1-0.6-0.2c-0.1-0.1-0.2-0.1-0.2-0.2c0-0.1-0.1-0.1-0.1-0.2
			c-0.1-0.1-0.2-0.2-0.2-0.2c-0.1,0-0.2-0.1-0.3-0.1c-1.1,0-2,0.4-2.7,1.2c0,0-0.1,0-0.1,0.1c0,0,0,0,0,0.1c0,0,0.1,0,0.1,0
			c0.4,0.1,0.7,0.3,1.1,0.4c0.2,0.1,0.4,0.1,0.5,0.2c0.1,0,0.1,0,0.2,0c0.1-0.1,0.3-0.1,0.4-0.1c0.1,0,0.1,0,0.2,0
			c0.2,0,0.4,0,0.5,0.1c0.2,0.1,0.4,0.3,0.5,0.6c0,0,0,0.1,0,0.1c0,0.2,0,0.3,0,0.5c0,0.2-0.2,0.4-0.4,0.6c-0.1,0-0.1,0.1-0.2,0.1
			c-0.2,0.1-0.3,0.1-0.5,0.1c-0.4,0-0.6-0.2-0.8-0.5c0-0.1-0.1-0.1-0.1-0.2c0-0.1-0.1-0.2-0.1-0.3c0-0.1-0.1-0.2-0.1-0.3
			c-0.1-0.1-0.1-0.2-0.2-0.2c0,0-0.1-0.1-0.1-0.1c-0.1,0-0.2-0.1-0.4-0.1C34.1,30.8,33.8,30.8,33.5,30.8z M36.2,30.7
			C36.2,30.7,36.2,30.8,36.2,30.7c-0.2,0.2-0.3,0.3-0.4,0.4c0,0-0.1,0.1-0.1,0.1c0,0-0.1,0.1-0.1,0.2c0,0,0,0.1,0,0.1
			c0,0.1,0,0.1,0.1,0.1c0.1,0.1,0.2,0.2,0.4,0.3c0,0,0.1,0,0.1,0c0.1-0.1,0.2-0.2,0.3-0.3c0,0,0.1-0.1,0.1-0.2c0-0.1,0-0.1,0-0.2
			c0-0.1,0-0.1-0.1-0.1C36.5,31.1,36.4,30.9,36.2,30.7C36.3,30.7,36.2,30.7,36.2,30.7z M37.9,29.1c0.1,0,0.1,0,0.2,0
			c0,0,0.1-0.1,0.1-0.1c0.1-0.1,0.2-0.2,0.4-0.3c0,0,0-0.1,0-0.1c-0.2-0.1-0.3-0.3-0.5-0.4c-0.1-0.1-0.2-0.1-0.3,0
			c-0.2,0.1-0.3,0.3-0.3,0.4c0,0.1,0,0.1,0,0.2c0.1,0.1,0.2,0.2,0.4,0.3C37.9,29.1,37.9,29.1,37.9,29.1z"/>
		<path class="st0" d="M41.5,54.6c-0.4,0-0.9-0.1-1.3-0.2c-0.5-0.1-0.9-0.2-1.4-0.4c-0.3-0.1-0.7-0.3-1-0.5
			c-0.2-0.1-0.4-0.3-0.7-0.5c-0.5-0.5-0.9-1-1.2-1.7c0-0.1,0-0.1-0.1-0.2c-0.1-0.3-0.1-0.4-0.1-0.7c0,0,0,0,0,0c0,0,0,0,0.1,0
			c0,0,0,0.1,0.1,0.1c0.1,0.1,0.1,0.2,0.2,0.3c0.1,0.2,0.3,0.4,0.4,0.7c0.1,0.2,0.3,0.4,0.4,0.6c0.1,0.1,0.2,0.2,0.3,0.4
			c0.3,0.4,0.7,0.7,1.1,0.9c0.3,0.2,0.7,0.3,1.1,0.3c0,0,0.1,0,0.1,0c0.1,0,0.1,0,0.1-0.1c-0.1-0.2-0.1-0.4-0.2-0.6
			c0-0.1-0.1-0.2-0.1-0.2c0-0.1-0.1-0.2-0.2-0.3c-0.1-0.2-0.3-0.3-0.4-0.4c-0.1,0-0.1-0.1-0.2-0.1c-0.2-0.1-0.3-0.2-0.4-0.4
			c-0.1-0.1-0.2-0.2-0.3-0.4c-0.1-0.1-0.1-0.2-0.2-0.3c-0.1-0.1-0.1-0.2-0.2-0.3c-0.1-0.2-0.3-0.3-0.5-0.4c0,0-0.1,0-0.1-0.1
			c-0.1-0.1-0.3-0.2-0.3-0.3c-0.1-0.2-0.1-0.4-0.1-0.6c0-0.2,0.1-0.4,0.3-0.6c0.1-0.1,0.2-0.2,0.4-0.3c0.1,0,0.3-0.1,0.4,0
			c0.1,0,0.2,0.1,0.4,0.1c0.1,0.1,0.3,0.2,0.4,0.3c0.1,0.2,0.2,0.4,0.2,0.7c0,0.1,0,0.2-0.1,0.4c0,0.1-0.1,0.2-0.1,0.3
			c0,0.1-0.1,0.1-0.1,0.2c0,0.1,0,0.2,0,0.3c0.2,0.4,0.5,0.8,0.9,1.1c0,0,0.1,0.1,0.1,0.1c0.2,0.2,0.4,0.3,0.5,0.6
			c0.1,0.1,0.2,0.3,0.3,0.5c0.1,0.3,0.3,0.5,0.5,0.7c0.1,0.2,0.3,0.3,0.4,0.5c0.2,0.2,0.3,0.3,0.5,0.5c0,0,0.1,0.1,0.1,0.1
			c0,0,0,0,0,0c0,0,0,0,0,0C41.6,54.7,41.5,54.6,41.5,54.6z M37.6,49.9c0,0,0.1,0,0.1,0c0,0,0.1,0,0.1-0.1c0.2-0.1,0.3-0.3,0.5-0.4
			c0,0,0-0.1,0-0.1c-0.2-0.1-0.3-0.2-0.5-0.3c-0.1,0-0.1-0.1-0.2-0.1c0,0,0,0-0.1,0c0,0-0.1,0-0.1,0.1c-0.1,0.1-0.2,0.2-0.3,0.3
			c-0.1,0.1,0,0.2,0,0.3c0.1,0.1,0.2,0.2,0.3,0.3C37.5,49.9,37.5,49.9,37.6,49.9z"/>
		<path class="st0" d="M42.1,26.1c-0.1,0-0.2,0-0.4,0c0,0,0,0,0,0c0,0,0,0,0,0c0,0,0,0,0,0c0.2-0.2,0.4-0.3,0.7-0.3
			c0.2,0,0.4,0,0.6,0c0.3,0.1,0.7,0.2,1,0.3c0.4,0.2,0.7,0.4,1,0.7c0.2,0.2,0.4,0.4,0.5,0.6c0,0,0,0,0.1,0.1c0,0,0,0,0,0
			c0,0,0,0,0.1,0c0.1-0.1,0.1-0.1,0.2-0.2c0.2-0.2,0.4-0.4,0.6-0.5c0.4-0.3,0.8-0.5,1.2-0.6c0.2-0.1,0.4-0.1,0.7-0.1
			c0.2,0,0.4,0,0.5,0c0.2,0,0.3,0,0.5-0.1c0.2,0,0.3-0.1,0.4-0.2c0,0,0.1-0.1,0.1-0.1c0,0,0.1,0,0.2-0.1c0.1,0,0.2,0,0.2,0
			c0.1,0,0.2,0.1,0.3,0.1c0.2,0.1,0.3,0.3,0.4,0.5c0.1,0.2,0.1,0.3,0.1,0.5c0,0.2-0.1,0.4-0.2,0.5c-0.1,0.1-0.2,0.2-0.4,0.3
			c-0.2,0.1-0.3,0.1-0.5,0.1c-0.3,0-0.5-0.2-0.7-0.4c0-0.1-0.1-0.1-0.1-0.2c0-0.1-0.1-0.1-0.1-0.2c-0.1-0.2-0.3-0.3-0.5-0.3
			c-0.1,0-0.3,0-0.4,0c-0.1,0-0.2,0-0.4,0.1c-0.2,0.1-0.3,0.1-0.5,0.2c-0.5,0.3-0.9,0.6-1.2,1.1c-0.2,0.2-0.3,0.5-0.4,0.7
			c0,0.1,0,0.2-0.1,0.2c0,0.1,0,0.2,0,0.3c0,0.2-0.1,0.3-0.1,0.5c-0.1,0.2-0.2,0.3-0.3,0.5c-0.1,0.2-0.3,0.5-0.4,0.7
			c-0.1,0.1-0.1,0.2-0.2,0.2c-0.1,0.1-0.2,0.1-0.3,0.2c0,0,0,0-0.1,0c0,0-0.1-0.1-0.1-0.1c0,0,0,0,0,0c0,0,0,0,0-0.1
			c0.1-0.1,0.1-0.2,0.2-0.3c0.2-0.3,0.4-0.6,0.5-0.9c0.1-0.3,0.2-0.5,0.2-0.8c0-0.3,0-0.5,0-0.8c-0.1-0.3-0.2-0.6-0.3-0.9
			c-0.3-0.5-0.7-0.9-1.2-1.1c-0.3-0.1-0.5-0.2-0.8-0.2C42.7,26.1,42.4,26.1,42.1,26.1z M50.2,27C50.2,27,50.2,27,50.2,27
			c0.2-0.1,0.3-0.2,0.4-0.4c0,0,0.1-0.1,0.1-0.1c0-0.1,0-0.1,0-0.2c0,0,0-0.1-0.1-0.1c-0.1-0.1-0.2-0.3-0.4-0.4c0,0-0.1,0-0.1,0
			c-0.1,0.2-0.3,0.3-0.4,0.5c0,0,0,0.1,0,0.1c-0.1,0.1,0,0.2,0.1,0.3c0,0,0,0,0,0C49.9,26.8,50,26.9,50.2,27
			C50.2,27,50.2,27,50.2,27z"/>
		<path class="st0" d="M27.4,36.9c0.3-0.1,0.5-0.1,0.8-0.1c0.1,0,0.2,0,0.3,0c0.3,0,0.6,0.1,0.9,0.3c0.1,0,0.1,0.1,0.2,0.1
			c0,0,0,0,0,0.1c0,0,0,0,0,0c0,0-0.1,0-0.1,0c-0.1,0-0.3,0-0.4,0c-0.5,0-1,0-1.4,0.2c-0.9,0.4-1.5,1.1-1.7,2c0,0.2-0.1,0.4-0.1,0.6
			c0,0.1,0,0.1,0,0.2c0,0.1,0,0.1,0,0.2c0.1,0.1,0.2,0.3,0.3,0.4c0.1,0.1,0.1,0.1,0.2,0.2c0.2,0.2,0.3,0.3,0.3,0.5
			c0.1,0.4,0,0.8-0.4,1.1c-0.2,0.1-0.4,0.2-0.6,0.2c-0.1,0-0.1,0-0.2,0c-0.4,0-0.8-0.3-0.9-0.7c0,0,0-0.1,0-0.1
			c-0.1-0.3,0-0.6,0.2-0.8c0.1-0.1,0.1-0.2,0.2-0.2c0.1-0.1,0.2-0.3,0.2-0.4c0-0.1,0-0.1,0-0.2c0,0,0-0.1,0-0.1c0-0.2,0-0.5,0.1-0.7
			c0-0.2,0.1-0.5,0.2-0.7c0.1-0.3,0.2-0.5,0.4-0.7c0.1-0.1,0.1-0.1,0.2-0.2c0.2-0.2,0.3-0.5,0.3-0.8c0-0.1,0-0.2,0-0.3
			c0-0.2,0-0.4,0-0.5c0-0.3,0.1-0.6,0.3-0.9c0.2-0.3,0.4-0.5,0.7-0.6c0.2-0.1,0.3-0.1,0.5-0.1c0.1,0,0.2,0,0.3,0
			c0.2,0,0.3,0,0.5,0.1c0.1,0,0.1,0,0.2,0.1c0.2,0.1,0.3,0.2,0.5,0.3c0,0,0.1,0,0.1,0.1c0,0.1,0,0.1-0.1,0.1c0,0,0,0,0,0
			c0,0-0.1,0-0.1,0c-0.4-0.1-0.8-0.1-1.2,0c-0.2,0-0.3,0.1-0.5,0.1c-0.3,0.1-0.4,0.3-0.5,0.6c0,0.1,0,0.1,0,0.2c0,0.3,0,0.5,0,0.8
			c0,0,0,0,0,0c0,0,0.1,0.1,0.1,0.1c0.1,0,0.2,0,0.2-0.1C27.2,36.9,27.3,36.9,27.4,36.9z M25.5,42.3C25.5,42.3,25.5,42.3,25.5,42.3
			c0.3-0.1,0.5-0.2,0.6-0.4c0.1-0.1,0.1-0.2,0-0.3c0,0,0-0.1-0.1-0.1c-0.1-0.2-0.3-0.3-0.4-0.5c0,0-0.1,0-0.1,0
			c-0.1,0.2-0.3,0.3-0.4,0.5c0,0.1-0.1,0.1-0.1,0.2c0,0.1,0,0.2,0,0.2c0.1,0.2,0.2,0.3,0.3,0.4C25.4,42.3,25.5,42.3,25.5,42.3z"/>
		<path class="st0" d="M29.3,59.9c0,0.6-0.4,1.3-1.1,1.5c-0.1,0-0.3,0.1-0.4,0.1c-0.4,0-0.7-0.1-1-0.3c-0.3-0.3-0.5-0.6-0.6-1
			c-0.1-0.4,0-1,0.3-1.4c0.2-0.3,0.5-0.4,0.8-0.5c0.1,0,0.3,0,0.4,0c0.5,0,0.9,0.2,1.2,0.6c0.2,0.2,0.3,0.4,0.3,0.7
			C29.3,59.7,29.3,59.8,29.3,59.9z"/>
		<path class="st0" d="M58.9,31.2c0.7,0,1.4,0.2,2,0.5c1.2,0.6,2,1.5,2.5,2.7c0.1,0.3,0.3,0.7,0.3,1.1c0,0.1,0,0.2,0.1,0.2
			c0,0.1,0,0.2-0.1,0.4c0,0,0,0,0,0.1c0,0-0.1,0-0.1,0c-0.1-0.1-0.2-0.2-0.3-0.3c-0.1-0.2-0.2-0.4-0.3-0.6c-0.1-0.2-0.2-0.5-0.3-0.7
			c-0.3-0.5-0.6-1-1-1.4c-0.4-0.4-0.9-0.7-1.4-0.9c-0.3-0.1-0.6-0.2-0.8-0.2c-0.2,0-0.4,0-0.6,0c-0.1,0-0.3,0-0.4,0
			c-0.3,0-0.5,0.1-0.8,0.2c-0.5,0.2-1,0.4-1.4,0.8c-0.2,0.2-0.4,0.4-0.6,0.6c-0.1,0.1-0.2,0.2-0.3,0.3c0,0,0,0-0.1,0
			c0,0-0.1,0-0.1-0.1c0,0,0,0,0-0.1c0-0.1,0.1-0.3,0.2-0.4c0-0.1,0.1-0.1,0.1-0.2c0.5-0.6,1.1-1.1,1.8-1.5c0.4-0.2,0.7-0.2,1.1-0.3
			C58.5,31.2,58.7,31.2,58.9,31.2z"/>
		<path class="st0" d="M66.8,37.3c0,0.5-0.3,0.9-0.7,1.1c-0.3,0.1-0.5,0.1-0.8,0c-0.1,0-0.1-0.1-0.2-0.1c-0.3-0.1-0.6-0.2-0.9-0.2
			c-0.1,0-0.2,0-0.3,0c-0.2,0-0.4-0.1-0.6-0.1c-0.4-0.1-0.8-0.4-1.1-0.7c-0.1-0.1-0.2-0.2-0.3-0.4c-0.2-0.3-0.3-0.5-0.4-0.8
			c0-0.1-0.1-0.2-0.1-0.3c-0.1-0.2-0.2-0.3-0.3-0.5c-0.2-0.4-0.5-0.7-0.9-0.9c0,0-0.1,0-0.1-0.1c-0.1-0.1-0.2-0.2-0.3-0.4
			c0,0,0,0,0,0c0,0,0.1,0,0.1,0c0.2,0,0.4,0.1,0.6,0.2c0.3,0.1,0.6,0.4,0.8,0.6c0.1,0.2,0.3,0.4,0.3,0.6c0.1,0.2,0.1,0.3,0.2,0.5
			c0.1,0.2,0.2,0.4,0.3,0.6c0.1,0.1,0.1,0.2,0.2,0.3c0.2,0.3,0.3,0.5,0.6,0.6c0.3,0.2,0.6,0.3,0.9,0.3c0.1,0,0.2,0,0.4,0
			c0.2,0,0.3-0.1,0.4-0.2c0-0.1,0.1-0.1,0.1-0.2c0-0.1,0-0.1,0.1-0.2c0.1-0.3,0.4-0.5,0.7-0.5c0.3,0,0.5,0,0.7,0.1
			c0.3,0.1,0.5,0.4,0.6,0.7C66.8,37.2,66.8,37.3,66.8,37.3z M65.8,36.5C65.8,36.6,65.7,36.6,65.8,36.5c-0.2,0.2-0.3,0.3-0.4,0.4
			c0,0.1-0.1,0.1-0.1,0.2c0,0.1-0.1,0.1-0.1,0.2c0,0,0,0.1,0,0.1c0,0.1,0.1,0.1,0.1,0.1c0.1,0.1,0.2,0.2,0.4,0.3c0,0,0.1,0,0.1,0
			c0.1-0.1,0.3-0.2,0.4-0.3c0,0,0.1-0.1,0.1-0.1c0.1-0.1,0.1-0.2,0-0.3c0,0,0-0.1-0.1-0.1C66.1,36.9,66,36.7,65.8,36.5
			C65.8,36.6,65.8,36.6,65.8,36.5C65.8,36.5,65.8,36.5,65.8,36.5z"/>
		<path class="st0" d="M59.3,45.7c-0.1,0-0.1,0-0.2,0c0,0,0,0,0,0c0,0,0,0,0-0.1c0.1-0.1,0.2-0.2,0.4-0.3c0.1,0,0.1-0.1,0.2-0.1
			c0.9-0.6,1.6-1.5,2.1-2.5c0.1-0.2,0.1-0.3,0.1-0.5c0-0.1,0-0.3-0.1-0.4c0-0.1,0-0.1-0.1-0.2c-0.1-0.2-0.1-0.5-0.1-0.7
			c0-0.1,0.1-0.2,0.1-0.3c0.1-0.2,0.3-0.4,0.5-0.5c0.1-0.1,0.3-0.1,0.4-0.2c0.2,0,0.3,0,0.5,0c0.2,0,0.4,0.1,0.6,0.3
			c0.2,0.2,0.4,0.4,0.5,0.7c0,0,0,0.1,0,0.1c0,0.3,0,0.6-0.1,0.9c-0.1,0.2-0.3,0.4-0.5,0.5c-0.1,0.1-0.3,0.1-0.4,0.1
			c-0.1,0-0.1,0-0.2,0c-0.2,0-0.3,0.1-0.5,0.2c-0.1,0.1-0.1,0.1-0.1,0.2c-0.1,0.1-0.1,0.2-0.1,0.3c-0.2,0.3-0.3,0.6-0.5,0.9
			c-0.2,0.3-0.4,0.5-0.7,0.8c-0.4,0.4-0.9,0.7-1.5,0.9C59.4,45.7,59.4,45.7,59.3,45.7z M62.9,41.9c0,0,0.1,0,0.1,0
			c0.1,0,0.2,0,0.3-0.1c0.1-0.1,0.2-0.2,0.3-0.3c0.1-0.1,0.1-0.3,0-0.4c0-0.1-0.1-0.2-0.1-0.3c-0.1-0.2-0.2-0.3-0.3-0.5
			c0,0-0.1,0-0.1,0c-0.1,0-0.1,0-0.2,0c0,0-0.1,0-0.1,0c-0.1,0.1-0.3,0.3-0.4,0.5c0,0.1-0.1,0.1-0.1,0.2c0,0.1-0.1,0.1-0.1,0.2
			c0,0,0,0.1,0,0.1c0,0.1,0.1,0.3,0.2,0.4c0.1,0.1,0.3,0.2,0.4,0.2C62.8,41.9,62.8,41.9,62.9,41.9z"/>
		<path class="st0" d="M69.3,30c0,0.2,0,0.3,0,0.5c0,0.1,0,0.1-0.1,0.1c0,0,0,0,0,0c0,0,0,0-0.1,0c-0.4,0.1-0.7,0.1-1.1,0.2
			c-0.4,0.1-0.7,0.1-1.1,0.2c-0.2,0-0.5,0.1-0.7,0.1c-0.3,0-0.6,0.1-0.8,0.1c-0.1,0-0.2,0-0.4,0c-0.1,0-0.1,0-0.2-0.1
			c0,0-0.1-0.1-0.1-0.1c0-0.1-0.1-0.1-0.1-0.2c-0.1-0.2-0.3-0.4-0.4-0.6c0,0,0-0.1,0-0.1c0,0,0,0,0,0c0.2,0,0.4-0.1,0.6-0.1
			c0.2,0,0.4-0.1,0.7-0.1c0.2,0,0.4,0,0.5-0.1c0.2,0,0.4-0.1,0.6-0.1c0.2,0,0.4-0.1,0.7-0.1c0.2,0,0.4-0.1,0.6-0.1
			c0.2,0,0.4-0.1,0.7-0.1c0.2,0,0.4,0,0.5-0.1c0,0,0.1,0,0.1,0.1c0,0,0,0.1,0,0.1C69.2,29.8,69.2,29.9,69.3,30
			C69.2,30,69.3,30,69.3,30z"/>
		<path class="st0" d="M47.7,51.9c-0.1,0-0.2,0-0.3,0c-0.1,0-0.3,0-0.4,0c-0.1,0-0.2,0-0.3,0c-0.2,0-0.4,0.1-0.5,0.2
			c-0.1,0-0.1,0.1-0.2,0.1c-0.2,0.2-0.4,0.2-0.7,0.2c-0.5-0.1-0.9-0.4-1-0.8c0,0,0-0.1,0-0.1c0-0.1,0-0.2,0-0.2
			c0-0.2,0.1-0.4,0.2-0.5c0.2-0.2,0.4-0.4,0.6-0.5c0.2,0,0.3-0.1,0.5,0c0.1,0,0.2,0,0.3,0.1c0.2,0.1,0.4,0.2,0.5,0.4
			c0,0.1,0.1,0.1,0.1,0.2c0,0.1,0.1,0.2,0.2,0.2c0.1,0.1,0.3,0.2,0.5,0.2c0.1,0,0.2,0,0.3,0c0.4-0.1,0.7-0.1,1.1-0.2
			c0.4-0.1,0.9-0.2,1.3-0.3c0.3-0.1,0.5-0.1,0.8-0.2c0.1,0,0.2-0.1,0.3-0.1c0,0,0.1,0,0.1,0c0,0,0,0.1,0,0.1c0,0,0,0.1,0,0.1
			c0,0,0,0-0.1,0c-0.6,0.3-1.2,0.6-1.9,0.8c-0.2,0.1-0.3,0.1-0.5,0.2C48.2,51.8,48,51.9,47.7,51.9z M45.5,50.3
			C45.4,50.3,45.4,50.3,45.5,50.3c-0.2,0.2-0.3,0.4-0.5,0.5c0,0-0.1,0.1-0.1,0.1c-0.1,0.1-0.1,0.2,0,0.3c0.1,0.2,0.3,0.4,0.5,0.5
			c0.1,0,0.1,0,0.2,0c0.2-0.1,0.3-0.2,0.4-0.4c0-0.1,0-0.1,0-0.2c0-0.1,0-0.1,0-0.2c0,0-0.1-0.1-0.1-0.1
			C45.7,50.7,45.6,50.5,45.5,50.3C45.5,50.3,45.5,50.3,45.5,50.3C45.5,50.3,45.5,50.3,45.5,50.3z"/>
		<path class="st0" d="M68.3,45.3c0.2,0,0.4,0.1,0.6,0.3c0.2,0.2,0.2,0.3,0.3,0.6c0,0.1,0,0.2,0,0.2c0,0.2-0.1,0.4-0.3,0.5
			c0,0-0.1,0.1-0.1,0.1c0,0-0.1,0.1-0.1,0.1c-0.2,0.2-0.4,0.4-0.5,0.6c-0.1,0.2-0.1,0.4-0.2,0.5c-0.1,0.3-0.1,0.5-0.2,0.8
			c0,0,0,0,0,0.1c0,0,0,0.1,0,0.1c0.1,0.1,0.1,0.1,0.2,0.2c0,0,0.1,0.1,0.1,0.2c0.1,0.2,0.1,0.4,0.2,0.6c0,0.1,0,0.1,0,0.2
			c0,0.2-0.1,0.3-0.2,0.4c-0.1,0.1-0.1,0.1-0.2,0.2c-0.1,0.1-0.3,0.2-0.4,0.4c0,0,0,0,0,0c0,0,0,0-0.1,0c0,0,0,0,0,0
			c-0.1-0.1-0.3-0.2-0.4-0.4c-0.1-0.1-0.2-0.1-0.2-0.2c0-0.1-0.1-0.1-0.1-0.2c0-0.1,0-0.1,0-0.2c0-0.2,0-0.4,0.1-0.6
			c0-0.1,0.1-0.2,0.2-0.2c0,0,0.1-0.1,0.1-0.1c0.2-0.2,0.3-0.4,0.4-0.6c0.1-0.2,0.1-0.4,0.2-0.6c0-0.1,0-0.2,0.1-0.3
			c0-0.2,0.1-0.4,0.2-0.6c0-0.1,0-0.2,0-0.2c0,0-0.1-0.1-0.1-0.1c0,0-0.1-0.1-0.1-0.1c-0.2-0.2-0.2-0.5-0.2-0.8c0,0,0-0.1,0-0.1
			c0.1-0.3,0.3-0.5,0.6-0.6C68,45.3,68.1,45.3,68.3,45.3z M67.3,50.7c0,0,0.1,0,0.1,0c0.1,0,0.1-0.1,0.2-0.1
			c0.1-0.1,0.3-0.2,0.4-0.3c0,0,0,0,0,0c0,0,0,0,0-0.1c-0.1-0.1-0.3-0.2-0.4-0.3c0,0-0.1-0.1-0.1-0.1c-0.1-0.1-0.2-0.1-0.3,0
			c-0.1,0.1-0.3,0.2-0.3,0.3c0,0.1,0,0.1,0,0.2c0.1,0.1,0.2,0.3,0.3,0.4C67.2,50.7,67.3,50.7,67.3,50.7z M68.2,46.7
			C68.2,46.7,68.2,46.7,68.2,46.7c0.1,0,0.2,0,0.2-0.1c0.2-0.1,0.3-0.2,0.4-0.4c0,0,0-0.1,0-0.1c-0.2-0.1-0.3-0.2-0.5-0.4
			c0,0-0.1,0-0.1,0c0,0-0.1,0-0.1,0c0,0-0.1,0-0.1,0.1c-0.1,0.1-0.2,0.2-0.3,0.4c0,0.1,0,0.1,0,0.2c0.1,0.1,0.2,0.2,0.3,0.2
			C68.1,46.6,68.2,46.7,68.2,46.7z"/>
		<path class="st0" d="M25.7,49.3C25.7,49.3,25.7,49.4,25.7,49.3c-0.1,0.1-0.1,0.1-0.1,0.2c-0.8,0.8-1.6,1.5-2.4,2.3
			C23.1,51.9,23,51.9,23,52c0,0-0.1,0-0.1,0c-0.1-0.1-0.7-0.5-0.8-0.7c0,0,0-0.1,0-0.1c0,0,0,0,0-0.1c0,0,0.1-0.1,0.1-0.1
			c0.9-0.8,1.7-1.6,2.6-2.5c0,0,0.1-0.1,0.1-0.1c0,0,0,0,0.1,0c0,0,0,0,0,0C25.2,48.8,25.5,49,25.7,49.3
			C25.7,49.3,25.7,49.3,25.7,49.3z"/>
		<path class="st0" d="M55.7,42C55.8,42,55.8,42,55.7,42C55.8,42,55.8,42,55.7,42c0,0.1,0,0.2-0.1,0.3c-0.2,0.2-0.3,0.4-0.5,0.6
			c-0.4,0.4-0.9,0.6-1.4,0.8c-0.2,0.1-0.5,0.1-0.7,0.2c-0.2,0-0.5,0.1-0.7,0.1c0,0-0.1,0-0.1,0c-0.3,0-0.7,0.1-1,0.1
			c-0.3,0-0.6,0.1-0.9,0.1c-0.2,0-0.4,0.1-0.6,0.2c-0.3,0.2-0.6,0.4-0.8,0.7c0,0.1-0.1,0.1-0.1,0.2c-0.1,0.2-0.1,0.2-0.3,0.2
			c0,0,0,0,0,0c0,0,0,0,0-0.1c0.1-0.2,0.1-0.5,0.3-0.7c0.2-0.4,0.6-0.7,1.1-0.9c0.2-0.1,0.4-0.1,0.6-0.2c0.4-0.1,0.8-0.1,1.2-0.2
			c0.3,0,0.7,0,1-0.1c0.4,0,0.8-0.1,1.3-0.3c0.6-0.2,1-0.5,1.5-0.9c0,0,0.1-0.1,0.1-0.1c0,0,0.1-0.1,0.1-0.1c0.1,0,0.2,0,0.3-0.1
			C55.7,42,55.7,42,55.7,42z"/>
		<path class="st0" d="M22.3,53.2c0,0.1,0,0.3-0.1,0.4c-0.1,0.3-0.3,0.5-0.5,0.6c-0.1,0.1-0.3,0.1-0.4,0.1c-0.4,0-0.8-0.1-1.1-0.4
			c-0.2-0.2-0.2-0.4-0.3-0.6c0-0.1,0-0.1,0-0.2c0.1-0.5,0.4-0.8,0.8-1c0.1,0,0.2-0.1,0.4-0.1c0.5,0,0.9,0.4,1.1,0.8
			C22.3,53,22.3,53.1,22.3,53.2z"/>
		<path class="st0" d="M50,49.6c-0.2,0-0.3,0-0.5,0c-0.3,0-0.6,0-0.8,0c-0.2,0-0.3,0-0.5,0c0,0,0,0-0.1,0c0,0,0,0,0-0.1c0,0,0,0,0,0
			c0,0,0.1,0,0.1-0.1c0.6-0.2,1.1-0.4,1.7-0.5c0.4-0.1,0.7-0.1,1.1-0.2c0.3,0,0.7,0,1,0c0.2,0,0.4,0,0.7,0c0.1,0,0.2,0,0.3,0
			c0.2,0,0.5,0.1,0.7,0.1c0,0,0.1,0,0.1,0c0,0,0.1,0,0.1,0.1c0,0,0,0.1,0,0.1c0,0,0,0,0,0.1c0,0-0.1,0-0.1,0
			c-0.3,0.1-0.5,0.1-0.8,0.2c-0.3,0.1-0.5,0.1-0.8,0.1c-0.3,0-0.6,0-0.8,0.1c-0.1,0-0.3,0-0.4,0c-0.2,0-0.4,0-0.5,0
			C50.4,49.6,50.2,49.6,50,49.6z"/>
		<path class="st0" d="M73.2,38.4c-0.5,0-0.9-0.3-1-0.8c-0.1-0.3,0-0.9,0.4-1.1c0.1-0.1,0.2-0.1,0.3-0.1c0,0,0.1,0,0.1,0
			c0,0,0.1,0,0.1,0c0.3,0,0.6,0.1,0.8,0.3c0.2,0.2,0.3,0.5,0.3,0.7c0,0.5-0.3,0.8-0.7,0.9C73.4,38.4,73.2,38.4,73.2,38.4z"/>
		<path class="st0" d="M43.5,53.8c-0.1,0-0.3,0-0.4-0.1c-0.1-0.1-0.2-0.1-0.3-0.2c-0.2-0.2-0.5-0.4-0.7-0.7
			c-0.1-0.1-0.2-0.2-0.3-0.4c-0.1-0.1-0.1-0.2-0.1-0.3c-0.1-0.2-0.1-0.3-0.1-0.5c0-0.1,0-0.1,0.1-0.2c0,0,0.1,0,0.1,0c0,0,0,0,0,0
			c0.1,0.1,0.2,0.3,0.3,0.4c0.1,0.2,0.2,0.3,0.3,0.5c0.2,0.2,0.4,0.4,0.7,0.6c0.2,0.1,0.4,0.2,0.5,0.3c0.1,0.1,0.2,0.1,0.3,0.2
			c0,0,0,0.1,0,0.1c0,0,0,0-0.1,0c-0.1,0-0.1,0.1-0.2,0.1C43.7,53.8,43.6,53.8,43.5,53.8z"/>
		<path class="st0" d="M71.5,30c0,0.1,0,0.2-0.1,0.4c0,0.1-0.1,0.1-0.1,0.2c-0.1,0.1-0.2,0.2-0.3,0.3c0,0-0.1,0.1-0.1,0.1
			c-0.1,0-0.1,0-0.2,0c0,0-0.1,0-0.1-0.1c-0.1-0.1-0.2-0.3-0.3-0.4c0,0-0.1-0.1-0.1-0.1c0,0,0-0.1-0.1-0.1c-0.1-0.1-0.1-0.3,0-0.4
			c0.1-0.2,0.3-0.3,0.4-0.5c0.1-0.1,0.2-0.1,0.3-0.1c0.2,0,0.4,0.1,0.6,0.3C71.5,29.7,71.5,29.8,71.5,30z"/>
		<path class="st0" d="M30.4,48.3c-0.6,0-1.2-0.2-1.7-0.6c-0.3-0.2-0.5-0.4-0.7-0.7c0,0,0-0.1-0.1-0.1c0,0,0,0,0,0c0,0,0,0,0,0
			c0,0,0.1,0,0.1,0.1c0.2,0.1,0.3,0.2,0.5,0.3c0.2,0.1,0.4,0.2,0.5,0.3c0.2,0.1,0.5,0.2,0.7,0.3c0.2,0.1,0.5,0.1,0.7,0.1
			c0.3,0,0.5,0,0.8,0c0.1,0,0.1,0,0.2,0c0,0,0,0,0,0c0,0,0,0,0,0.1c0,0,0,0,0,0c0,0-0.1,0.1-0.1,0.1c-0.2,0.1-0.3,0.2-0.5,0.2
			C30.7,48.3,30.6,48.3,30.4,48.3z"/>
		<path class="st0" d="M64.8,39.5c0.2,0,0.3,0.1,0.5,0.2c0.5,0.3,0.8,0.7,0.9,1.3c0,0.1,0,0.2,0,0.3c0,0.1-0.1,0.2-0.1,0.3
			c0,0-0.1,0-0.1,0c0,0-0.1-0.1-0.1-0.1c-0.4-0.6-0.7-1.2-1.1-1.8C64.8,39.7,64.7,39.6,64.8,39.5C64.7,39.6,64.7,39.6,64.8,39.5
			C64.7,39.5,64.7,39.5,64.8,39.5C64.8,39.5,64.8,39.5,64.8,39.5z"/>
		<path class="st0" d="M72.6,34.8C72.5,34.8,72.5,34.8,72.6,34.8c-0.2-0.1-0.3-0.2-0.4-0.3c0-0.1,0-0.1,0-0.2c0,0,0-0.1,0.1-0.1
			c0.1-0.1,0.2-0.3,0.3-0.4c0,0,0.1,0,0.1,0c0.1,0.1,0.2,0.2,0.3,0.3c0,0,0,0,0,0.1c0,0.1,0,0.1,0,0.2
			C72.9,34.6,72.8,34.7,72.6,34.8C72.6,34.8,72.6,34.8,72.6,34.8z"/>
		<polygon class="st0" points="41.4,27.6 41.4,27.6 41.4,27.6 		"/>
		<path class="st0" d="M56.6,55.5c0.1,0,0.2,0,0.2,0c0.9,0,1.8-0.3,2.5-0.8c0.1-0.1,0.2-0.2,0.3-0.2c0.4-0.3,0.8-0.5,1.3-0.6
			c0.3-0.1,0.7-0.2,1.1-0.2c0.1,0,0.2,0,0.3,0c0.3,0,0.6,0,1,0.1c0.2,0,0.4,0.1,0.7,0.2c0,0,0.1,0,0.1,0c0.1,0,0.1,0.1,0.2,0.2
			c0,0,0,0.1,0,0.1c-0.1,0-0.2,0-0.4,0c0,0-0.1,0-0.1,0c-0.2,0-0.4-0.1-0.6-0.1c-0.3-0.1-0.7-0.1-1-0.1c-0.7,0-1.3,0.3-1.9,0.6
			c-0.2,0.1-0.4,0.3-0.6,0.4c-0.1,0.1-0.1,0.1-0.2,0.2c-0.4,0.3-0.8,0.5-1.2,0.6c-0.2,0.1-0.4,0.1-0.6,0.1c-0.3,0-0.6,0-0.8,0
			c-0.2,0-0.4-0.1-0.6-0.1c-0.1,0-0.3,0-0.4-0.1c0,0,0,0,0,0c0,0,0,0,0,0c0,0,0,0,0,0C55.9,55.5,56.3,55.4,56.6,55.5z"/>
		<path class="st0" d="M55.4,63.6c0,0-0.1,0-0.1,0c0-0.1-0.1-0.1-0.1-0.2c-0.1-0.2-0.2-0.4-0.3-0.6c-0.2-0.3-0.3-0.7-0.5-1
			c-0.2-0.4-0.5-0.7-0.8-1.1c-0.3-0.3-0.6-0.6-0.9-0.9c0,0-0.1-0.1-0.1,0l0,0c0,0,0,0,0.1,0c0,0,0.1,0,0.1,0
			c0.1,0.1,0.2,0.1,0.3,0.2c0.4,0.3,0.8,0.6,1.1,1c0.2,0.3,0.5,0.7,0.6,1c0.2,0.4,0.4,0.9,0.5,1.3C55.3,63.4,55.3,63.5,55.4,63.6
			L55.4,63.6z"/>
		<path class="st0" d="M55.4,63.6C55.4,63.6,55.4,63.6,55.4,63.6C55.3,63.6,55.4,63.6,55.4,63.6C55.4,63.6,55.4,63.6,55.4,63.6z"/>
		<path class="st0" d="M52.5,59.7C52.5,59.7,52.6,59.7,52.5,59.7C52.5,59.7,52.5,59.7,52.5,59.7C52.5,59.7,52.5,59.7,52.5,59.7z"/>
	</g>
</g>
</svg>
